<svg width="170" height="59" viewBox="0 0 170 59" fill="none" xmlns="http://www.w3.org/2000/svg">
<path fill-rule="evenodd" clip-rule="evenodd" d="M16.5133 4.92383L13.2463 8.19078L16.3238 11.2683L19.5908 8.00133L16.5133 4.92383Z" fill="#F3B229"/>
<path fill-rule="evenodd" clip-rule="evenodd" d="M38.3577 33.3021L50.167 45.1111L53.434 41.8445L41.6246 30.0352L38.3577 33.3021Z" fill="#F3B229"/>
<path fill-rule="evenodd" clip-rule="evenodd" d="M12.8213 16.4044L16.0879 19.671L29.132 6.62727L33.7787 11.2745L37.0457 8.0075L29.132 0.09375L12.8213 16.4044Z" fill="#F3B229"/>
<path fill-rule="evenodd" clip-rule="evenodd" d="M47.0823 16.4106L50.3488 19.6775L53.4341 16.5926L50.1672 13.3257L47.0823 16.4106Z" fill="#F3B229"/>
<path fill-rule="evenodd" clip-rule="evenodd" d="M13.2461 50.2468L16.5127 53.5138L28.3216 41.7052L25.0547 38.4382L13.2461 50.2468Z" fill="#F3B229"/>
<path fill-rule="evenodd" clip-rule="evenodd" d="M29.9546 33.5382L33.2215 36.8048L45.4487 24.5776L42.1818 21.311L29.9546 33.5382Z" fill="#F3B229"/>
<path fill-rule="evenodd" clip-rule="evenodd" d="M38.6792 16.1745L51.7291 29.2248L47.0886 33.8658L50.3555 37.1324L58.263 29.2248L41.9458 12.908L38.6792 16.1745Z" fill="#F3B229"/>
<path fill-rule="evenodd" clip-rule="evenodd" d="M4.84277 41.8438L8.10934 45.1108L11.1806 42.0395L7.91367 38.7729L4.84277 41.8438Z" fill="#F3B229"/>
<path fill-rule="evenodd" clip-rule="evenodd" d="M29.9546 16.732L33.2215 19.9985L45.0309 8.18956L41.7639 4.92261L29.9546 16.732Z" fill="#F3B229"/>
<path fill-rule="evenodd" clip-rule="evenodd" d="M0 29.2256L16.3169 45.5425L19.5838 42.2755L6.53352 29.2256L11.1877 24.5714L7.92076 21.3044L0 29.2256Z" fill="#F3B229"/>
<path fill-rule="evenodd" clip-rule="evenodd" d="M21.2244 16.1683L33.4578 28.4017L36.7243 25.1351L24.4909 12.9014L21.2244 16.1683Z" fill="#F3B229"/>
<path fill-rule="evenodd" clip-rule="evenodd" d="M38.6853 50.4359L41.764 53.5142L45.0309 50.2476L41.9523 47.1689L38.6853 50.4359Z" fill="#F3B229"/>
<path fill-rule="evenodd" clip-rule="evenodd" d="M4.84326 16.5935L16.6515 28.4017L19.9184 25.1351L8.11022 13.3269L4.84326 16.5935Z" fill="#F3B229"/>
<mask id="mask0_7_2318" style="mask-type:luminance" maskUnits="userSpaceOnUse" x="21" y="30" width="25" height="29">
<path fill-rule="evenodd" clip-rule="evenodd" d="M21.2173 30.0352H45.4549V58.3333H21.2173V30.0352Z" fill="white"/>
</mask>
<g mask="url(#mask0_7_2318)">
<path fill-rule="evenodd" clip-rule="evenodd" d="M21.5518 33.3021L33.7851 45.5355L37.0517 42.2685L24.8183 30.0352L21.5518 33.3021Z" fill="#F3B229"/>
<path fill-rule="evenodd" clip-rule="evenodd" d="M29.131 51.8232L24.4839 47.176L21.2173 50.4426L29.131 58.3567L45.4549 42.0328L42.1884 38.7659L29.131 51.8232Z" fill="#F3B229"/>
</g>
<path fill-rule="evenodd" clip-rule="evenodd" d="M12.8142 33.8725L16.0808 37.1394L28.3216 24.899L25.0546 21.6321L12.8142 33.8725Z" fill="#F3B229"/>
<path fill-rule="evenodd" clip-rule="evenodd" d="M74.7786 6.51484C74.6347 6.05541 74.4943 5.75431 74.3173 5.63411C74.1823 5.54113 73.931 5.52129 73.8217 5.52129C73.6941 5.52129 73.6174 5.50845 73.6174 5.40653C73.6174 5.319 73.7232 5.29761 73.8921 5.29761C74.5452 5.29761 75.2303 5.32795 75.3454 5.32795C75.4586 5.32795 76.0083 5.29761 76.7319 5.29761C76.9019 5.29761 76.9929 5.32795 76.9929 5.40653C76.9929 5.50845 76.8906 5.52129 76.7669 5.52129C76.6681 5.52129 76.5444 5.52129 76.4572 5.56681C76.3437 5.61971 76.3184 5.70491 76.3184 5.8399C76.3184 6.00756 76.4425 6.43081 76.5953 6.98827C76.8054 7.8161 77.9662 11.6047 78.1919 12.3022H78.2284L80.6505 5.79438C80.7757 5.43999 80.8597 5.3439 80.9656 5.3439C81.1021 5.3439 81.1628 5.53413 81.3301 5.9352L83.9252 12.2128H83.9614C84.1839 11.376 85.1864 8.0779 85.6275 6.61832C85.7077 6.332 85.7473 6.0698 85.7473 5.89047C85.7473 5.69401 85.6369 5.52129 85.1479 5.52129C85.0261 5.52129 84.9386 5.47928 84.9386 5.40653C84.9386 5.319 85.0335 5.29761 85.2264 5.29761C85.8858 5.29761 86.4098 5.32795 86.5223 5.32795C86.6078 5.32795 87.147 5.29761 87.559 5.29761C87.6944 5.29761 87.7835 5.319 87.7835 5.39525C87.7835 5.47928 87.7259 5.52129 87.6119 5.52129C87.4847 5.52129 87.3112 5.53413 87.1731 5.5812C86.8708 5.69401 86.7386 6.19157 86.4694 6.90813C85.901 8.48015 84.5889 12.4516 83.9765 14.3251C83.838 14.7624 83.7758 14.9129 83.612 14.9129C83.4844 14.9129 83.4136 14.7624 83.2257 14.2959L80.6287 8.04095H80.6014C80.3661 8.67893 78.7023 13.1005 78.1662 14.2465C77.9254 14.7624 77.8674 14.9129 77.7177 14.9129C77.5908 14.9129 77.5434 14.7768 77.4302 14.4492L74.7786 6.51484Z" fill="white"/>
<path fill-rule="evenodd" clip-rule="evenodd" d="M98.4972 10.254C98.4972 7.45466 96.8867 5.71731 94.8377 5.71731C93.4023 5.71731 91.7633 6.51479 91.7633 9.6277C91.7633 12.2271 93.2058 14.2889 95.6025 14.2889C96.479 14.2889 98.4972 13.8649 98.4972 10.254ZM90.0427 10.0171C90.0427 7.87907 91.4517 5.12134 95.2022 5.12134C98.3116 5.12134 100.249 6.92715 100.249 9.79109C100.249 12.6527 98.2459 14.9129 95.0781 14.9129C91.4914 14.9129 90.0427 12.2271 90.0427 10.0171Z" fill="white"/>
<path fill-rule="evenodd" clip-rule="evenodd" d="M106.29 9.90395C106.29 10.0428 106.316 10.0887 106.402 10.1304C106.66 10.2175 107.042 10.2541 107.352 10.2541C107.848 10.2541 108.013 10.2015 108.241 10.0428C108.614 9.76546 108.975 9.18777 108.975 8.16115C108.975 6.3923 107.807 5.88269 107.063 5.88269C106.751 5.88269 106.527 5.89047 106.402 5.9352C106.316 5.95855 106.29 6.00756 106.29 6.10676V9.90395ZM104.818 8.91779C104.818 7.02017 104.818 6.66617 104.793 6.27015C104.768 5.8399 104.668 5.64305 104.257 5.55397C104.153 5.53413 103.947 5.52129 103.768 5.52129C103.63 5.52129 103.552 5.49134 103.552 5.40653C103.552 5.319 103.642 5.29761 103.826 5.29761C104.494 5.29761 105.28 5.32795 105.543 5.32795C105.965 5.32795 106.914 5.29761 107.3 5.29761C108.089 5.29761 108.929 5.37308 109.6 5.83134C109.953 6.0698 110.449 6.70935 110.449 7.54262C110.449 8.46848 110.063 9.3107 108.802 10.3361C109.913 11.7389 110.774 12.8523 111.511 13.6237C112.21 14.3473 112.722 14.434 112.913 14.4757C113.047 14.5017 113.163 14.5115 113.259 14.5115C113.362 14.5115 113.411 14.5554 113.411 14.6149C113.411 14.7079 113.325 14.7367 113.172 14.7367H111.987C111.286 14.7367 110.973 14.6717 110.654 14.5017C110.114 14.2127 109.636 13.6237 108.94 12.6648C108.44 11.9739 107.869 11.1286 107.701 10.9352C107.643 10.8679 107.566 10.8535 107.479 10.8535L106.391 10.8247C106.331 10.8247 106.29 10.8535 106.29 10.9243V11.1037C106.29 12.2637 106.29 13.2495 106.353 13.7754C106.391 14.1357 106.462 14.4146 106.842 14.4601C107.03 14.4901 107.3 14.5115 107.45 14.5115C107.551 14.5115 107.606 14.5554 107.606 14.6149C107.606 14.7009 107.517 14.7367 107.352 14.7367C106.629 14.7367 105.705 14.7009 105.519 14.7009C105.28 14.7009 104.494 14.7367 103.993 14.7367C103.826 14.7367 103.743 14.7009 103.743 14.6149C103.743 14.5554 103.792 14.5115 103.947 14.5115C104.131 14.5115 104.28 14.4901 104.392 14.4601C104.641 14.4146 104.705 14.1357 104.755 13.7754C104.818 13.2495 104.818 12.2637 104.818 11.1165V8.91779Z" fill="white"/>
<path fill-rule="evenodd" clip-rule="evenodd" d="M117.768 11.1165C117.768 12.7111 117.768 13.5747 118.03 13.7992C118.242 13.9898 118.57 14.0781 119.54 14.0781C120.203 14.0781 120.691 14.0614 121.003 13.7241C121.158 13.5634 121.304 13.2102 121.326 12.9787C121.34 12.8647 121.362 12.7873 121.462 12.7873C121.555 12.7873 121.567 12.8523 121.567 12.9982C121.567 13.1406 121.477 14.0781 121.378 14.434C121.304 14.7079 121.238 14.7768 120.589 14.7768C119.692 14.7768 119.044 14.748 118.481 14.7367C117.917 14.7079 117.469 14.7009 116.955 14.7009C116.821 14.7009 116.539 14.7009 116.243 14.7079C115.957 14.7079 115.634 14.7367 115.386 14.7367C115.222 14.7367 115.131 14.7009 115.131 14.6149C115.131 14.5554 115.187 14.5115 115.33 14.5115C115.521 14.5115 115.669 14.4901 115.782 14.4601C116.037 14.4146 116.095 14.1357 116.143 13.7754C116.207 13.2495 116.207 12.2637 116.207 11.1165V8.91779C116.207 7.02017 116.207 6.66617 116.182 6.27015C116.157 5.8399 116.054 5.64305 115.646 5.55397C115.549 5.53413 115.392 5.52129 115.232 5.52129C115.094 5.52129 115.02 5.49134 115.02 5.40653C115.02 5.319 115.109 5.29761 115.293 5.29761C115.882 5.29761 116.668 5.32795 117.006 5.32795C117.306 5.32795 118.219 5.29761 118.704 5.29761C118.88 5.29761 118.97 5.319 118.97 5.40653C118.97 5.49134 118.893 5.52129 118.742 5.52129C118.607 5.52129 118.41 5.53413 118.255 5.55397C117.917 5.61971 117.815 5.83134 117.793 6.27015C117.768 6.66617 117.768 7.02017 117.768 8.91779V11.1165Z" fill="white"/>
<path fill-rule="evenodd" clip-rule="evenodd" d="M127.285 10.2914C127.285 11.6117 127.293 12.5742 127.31 12.8153C127.322 13.1262 127.35 13.6237 127.45 13.7642C127.61 13.9995 128.097 14.2605 129.082 14.2605C130.358 14.2605 131.209 14.0116 131.954 13.3619C132.76 12.6726 133.004 11.539 133.004 10.2541C133.004 8.66882 132.343 7.64065 131.809 7.12793C130.657 6.02974 129.233 5.88269 128.258 5.88269C128.009 5.88269 127.548 5.91614 127.45 5.96749C127.337 6.01884 127.293 6.08031 127.293 6.21569C127.285 6.64555 127.285 7.73168 127.285 8.72017V10.2914ZM125.725 8.91779C125.725 7.02017 125.725 6.66617 125.696 6.27015C125.671 5.8399 125.571 5.64305 125.16 5.55397C125.062 5.53413 124.848 5.52129 124.675 5.52129C124.533 5.52129 124.459 5.49134 124.459 5.40653C124.459 5.319 124.551 5.29761 124.734 5.29761C125.397 5.29761 126.181 5.32795 126.534 5.32795C126.92 5.32795 127.709 5.29761 128.459 5.29761C130.02 5.29761 132.107 5.29761 133.469 6.71752C134.094 7.36912 134.677 8.40662 134.677 9.88877C134.677 11.4643 134.018 12.6648 133.317 13.3779C132.742 13.9629 131.444 14.8503 129.135 14.8503C128.685 14.8503 128.171 14.8122 127.698 14.7768C127.222 14.7367 126.782 14.7009 126.476 14.7009C126.336 14.7009 126.06 14.7009 125.758 14.7079C125.472 14.7079 125.149 14.7367 124.896 14.7367C124.734 14.7367 124.652 14.7009 124.652 14.6149C124.652 14.5554 124.701 14.5115 124.848 14.5115C125.036 14.5115 125.189 14.4901 125.299 14.4601C125.55 14.4146 125.612 14.1357 125.663 13.7754C125.725 13.2495 125.725 12.2637 125.725 11.1165V8.91779Z" fill="white"/>
<path fill-rule="evenodd" clip-rule="evenodd" d="M77.3684 30.1751C77.3684 30.3156 77.3941 30.3669 77.4777 30.4031C77.7399 30.4898 78.1192 30.5268 78.4269 30.5268C78.9299 30.5268 79.0921 30.4754 79.315 30.3156C79.6935 30.0378 80.0495 29.4675 80.0495 28.4421C80.0495 26.667 78.8789 26.1566 78.1429 26.1566C77.8309 26.1566 77.6033 26.1679 77.4777 26.2048C77.3941 26.2321 77.3684 26.2768 77.3684 26.3787V30.1751ZM75.8921 29.1925C75.8921 27.2921 75.8921 26.9401 75.8699 26.5429C75.8446 26.12 75.7462 25.9177 75.3268 25.8321C75.2303 25.8065 75.0195 25.7964 74.846 25.7964C74.711 25.7964 74.6348 25.7707 74.6348 25.6773C74.6348 25.5917 74.7184 25.5637 74.9114 25.5637C75.5676 25.5637 76.3546 25.6069 76.6191 25.6069C77.0401 25.6069 77.9877 25.5637 78.3814 25.5637C79.1629 25.5637 80.0055 25.6462 80.6793 26.1095C81.0259 26.346 81.5293 26.9821 81.5293 27.8185C81.5293 28.7393 81.1372 29.5908 79.8779 30.6166C80.9893 32.014 81.8514 33.1266 82.5878 33.9019C83.2857 34.6239 83.798 34.7145 83.9855 34.748C84.1264 34.7729 84.2353 34.7916 84.3372 34.7916C84.4321 34.7916 84.487 34.8219 84.487 34.8857C84.487 34.9884 84.3991 35.0102 84.2505 35.0102H83.0616C82.3579 35.0102 82.0517 34.9499 81.7238 34.7729C81.1881 34.4854 80.7139 33.9019 80.0145 32.9379C79.5154 32.2544 78.9427 31.4021 78.779 31.2177C78.7171 31.1387 78.6381 31.129 78.549 31.129L77.4699 31.1041C77.4065 31.1041 77.3684 31.129 77.3684 31.2017V31.3799C77.3684 32.5392 77.3684 33.5234 77.4302 34.0497C77.4699 34.4099 77.5434 34.6869 77.9173 34.7367C78.1048 34.7628 78.3814 34.7916 78.5273 34.7916C78.6296 34.7916 78.6805 34.8219 78.6805 34.8857C78.6805 34.9717 78.5895 35.0102 78.4269 35.0102C77.7037 35.0102 76.7814 34.9717 76.5954 34.9717C76.3546 34.9717 75.5676 35.0102 75.0716 35.0102C74.9114 35.0102 74.8172 34.9717 74.8172 34.8857C74.8172 34.8219 74.8697 34.7916 75.0195 34.7916C75.2074 34.7916 75.3583 34.7628 75.4731 34.7367C75.7209 34.6869 75.7843 34.4099 75.8341 34.0497C75.8921 33.5234 75.8921 32.5392 75.8921 31.3873V29.1925Z" fill="white"/>
<path fill-rule="evenodd" clip-rule="evenodd" d="M87.2819 29.1926C87.2819 27.2923 87.2819 26.9402 87.2586 26.543C87.2353 26.1202 87.1326 25.9179 86.721 25.8323C86.6206 25.8066 86.4035 25.7965 86.237 25.7965C86.0974 25.7965 86.0188 25.7708 86.0188 25.6775C86.0188 25.5919 86.1087 25.5639 86.2962 25.5639C86.6334 25.5639 86.9983 25.579 87.3111 25.579C87.6317 25.5919 87.9203 25.607 88.0954 25.607C88.4964 25.607 90.9788 25.607 91.2192 25.5919C91.4518 25.5639 91.6525 25.5429 91.7545 25.5191C91.8159 25.5078 91.8933 25.4678 91.9517 25.4678C92.0131 25.4678 92.0283 25.5191 92.0283 25.579C92.0283 25.6681 91.9696 25.8194 91.926 26.394C91.9182 26.5177 91.8933 27.0721 91.8673 27.2152C91.8556 27.2794 91.8268 27.3526 91.7401 27.3526C91.6525 27.3526 91.6288 27.2923 91.6288 27.181C91.6288 27.0935 91.6199 26.878 91.5572 26.7321C91.4658 26.5061 91.3429 26.354 90.7162 26.2769C90.5045 26.2528 89.192 26.2322 88.9438 26.2322C88.88 26.2322 88.8571 26.2656 88.8571 26.354V29.517C88.8571 29.603 88.8715 29.652 88.9438 29.652C89.2177 29.652 90.6574 29.652 90.9418 29.6264C91.2448 29.603 91.43 29.5661 91.5393 29.4404C91.6288 29.3396 91.6778 29.277 91.7401 29.277C91.7934 29.277 91.8268 29.3027 91.8268 29.3789C91.8268 29.4532 91.7805 29.652 91.7292 30.29C91.7194 30.5378 91.6778 31.0393 91.6778 31.1291C91.6778 31.2264 91.6778 31.3621 91.5646 31.3621C91.4771 31.3621 91.4518 31.3139 91.4518 31.2528C91.4452 31.1291 91.4452 30.9677 91.4047 30.8004C91.3429 30.553 91.1709 30.367 90.7049 30.3157C90.468 30.29 89.229 30.2756 88.9333 30.2756C88.8715 30.2756 88.8571 30.327 88.8571 30.4032V31.3874C88.8571 31.8122 88.8427 32.9657 88.8571 33.3282C88.88 34.1825 89.0788 34.3766 90.3524 34.3766C90.6792 34.3766 91.204 34.3766 91.53 34.2292C91.8556 34.0732 92.0046 33.8172 92.0952 33.301C92.1178 33.1586 92.1404 33.1115 92.2302 33.1115C92.3302 33.1115 92.3302 33.2142 92.3302 33.338C92.3302 33.6262 92.2302 34.4766 92.1664 34.7244C92.075 35.0488 91.9696 35.0488 91.4942 35.0488C90.5559 35.0488 89.8716 35.0205 89.3309 35.0103C88.7948 34.9886 88.405 34.9718 88.0316 34.9718C87.8939 34.9718 87.6196 34.9718 87.3185 34.9886C87.0322 34.9886 86.7097 35.0103 86.458 35.0103C86.2962 35.0103 86.2032 34.9718 86.2032 34.8859C86.2032 34.8221 86.26 34.7917 86.4035 34.7917C86.5926 34.7917 86.7463 34.7629 86.8595 34.7369C87.1088 34.6871 87.168 34.4101 87.2201 34.0499C87.2819 33.5235 87.2819 32.5393 87.2819 31.3874V29.1926Z" fill="white"/>
<path fill-rule="evenodd" clip-rule="evenodd" d="M96.4529 34.8643C96.2483 34.7729 96.2129 34.7146 96.2129 34.4384C96.2129 33.7486 96.2592 33.0013 96.2709 32.8033C96.2852 32.6135 96.3249 32.4808 96.423 32.4808C96.5366 32.4808 96.5478 32.5917 96.5478 32.6905C96.5478 32.8492 96.6004 33.1114 96.6606 33.3281C96.9341 34.2512 97.6736 34.5881 98.4505 34.5881C99.5693 34.5881 100.121 33.8218 100.121 33.1585C100.121 32.5477 99.9299 31.9774 98.8967 31.1648L98.3225 30.7128C96.9485 29.641 96.4743 28.7626 96.4743 27.7555C96.4743 26.3787 97.6231 25.3906 99.362 25.3906C100.17 25.3906 100.696 25.519 101.021 25.6069C101.135 25.6357 101.199 25.668 101.199 25.7559C101.199 25.9177 101.143 26.2768 101.143 27.2544C101.143 27.531 101.104 27.6294 101.008 27.6294C100.917 27.6294 100.882 27.5543 100.882 27.4069C100.882 27.2921 100.824 26.9035 100.56 26.5798C100.369 26.346 100.01 25.9691 99.1935 25.9691C98.2712 25.9691 97.7106 26.5059 97.7106 27.2544C97.7106 27.8313 98.0024 28.2631 99.0375 29.0563L99.383 29.317C100.899 30.4525 101.432 31.3138 101.432 32.503C101.432 33.2239 101.158 34.091 100.262 34.6745C99.6386 35.0717 98.9387 35.1899 98.2712 35.1899C97.5503 35.1899 96.9886 35.0993 96.4529 34.8643Z" fill="white"/>
<path fill-rule="evenodd" clip-rule="evenodd" d="M113.46 30.5268C113.46 27.7313 111.849 25.9924 109.805 25.9924C108.366 25.9924 106.728 26.7946 106.728 29.9036C106.728 32.503 108.167 34.5621 110.563 34.5621C111.441 34.5621 113.46 34.1357 113.46 30.5268ZM105.004 30.2899C105.004 28.1558 106.414 25.3906 110.164 25.3906C113.27 25.3906 115.213 27.2066 115.213 30.0678C115.213 32.929 113.21 35.1899 110.039 35.1899C106.455 35.1899 105.004 32.503 105.004 30.2899Z" fill="white"/>
<path fill-rule="evenodd" clip-rule="evenodd" d="M119.367 29.1925C119.367 27.2921 119.367 26.9401 119.343 26.5429C119.317 26.12 119.217 25.9177 118.804 25.8321C118.704 25.8065 118.49 25.7964 118.315 25.7964C118.177 25.7964 118.104 25.7707 118.104 25.6773C118.104 25.5917 118.191 25.5637 118.38 25.5637C119.04 25.5637 119.827 25.6069 120.203 25.6069C120.5 25.6069 121.293 25.5637 121.737 25.5637C121.927 25.5637 122.014 25.5917 122.014 25.6773C122.014 25.7707 121.938 25.7964 121.815 25.7964C121.676 25.7964 121.599 25.8065 121.45 25.8321C121.111 25.8909 121.018 26.1095 120.988 26.5429C120.967 26.9401 120.967 27.2921 120.967 29.1925V30.9403C120.967 32.7481 121.326 33.5129 121.938 34.0147C122.5 34.4765 123.078 34.5251 123.498 34.5251C124.049 34.5251 124.726 34.3508 125.225 33.8505C125.911 33.1585 125.947 32.0385 125.947 30.7512V29.1925C125.947 27.2921 125.947 26.9401 125.926 26.5429C125.9 26.12 125.798 25.9177 125.388 25.8321C125.288 25.8065 125.076 25.7964 124.934 25.7964C124.8 25.7964 124.726 25.7707 124.726 25.6773C124.726 25.5917 124.809 25.5637 124.991 25.5637C125.621 25.5637 126.406 25.6069 126.406 25.6069C126.576 25.6069 127.358 25.5637 127.846 25.5637C128.025 25.5637 128.107 25.5917 128.107 25.6773C128.107 25.7707 128.035 25.7964 127.882 25.7964C127.747 25.7964 127.668 25.8065 127.526 25.8321C127.186 25.8909 127.081 26.1095 127.059 26.5429C127.034 26.9401 127.034 27.2921 127.034 29.1925V30.5268C127.034 31.9156 126.899 33.3845 125.846 34.2847C124.961 35.0487 124.063 35.1899 123.246 35.1899C122.591 35.1899 121.387 35.1487 120.478 34.322C119.838 33.7486 119.367 32.8251 119.367 31.0158V29.1925Z" fill="white"/>
<path fill-rule="evenodd" clip-rule="evenodd" d="M133.979 30.1751C133.979 30.3156 134.003 30.3669 134.091 30.4031C134.354 30.4898 134.727 30.5268 135.041 30.5268C135.541 30.5268 135.701 30.4754 135.927 30.3156C136.303 30.0378 136.664 29.4675 136.664 28.4421C136.664 26.667 135.49 26.1566 134.753 26.1566C134.44 26.1566 134.219 26.1679 134.091 26.2048C134.003 26.2321 133.979 26.2768 133.979 26.3787V30.1751ZM132.505 29.1925C132.505 27.2921 132.505 26.9401 132.479 26.5429C132.453 26.12 132.356 25.9177 131.943 25.8321C131.839 25.8065 131.63 25.7964 131.456 25.7964C131.32 25.7964 131.24 25.7707 131.24 25.6773C131.24 25.5917 131.327 25.5637 131.52 25.5637C132.176 25.5637 132.967 25.6069 133.228 25.6069C133.656 25.6069 134.603 25.5637 134.991 25.5637C135.777 25.5637 136.616 25.6462 137.286 26.1095C137.64 26.346 138.139 26.9821 138.139 27.8185C138.139 28.7393 137.752 29.5908 136.487 30.6166C137.6 32.014 138.46 33.1266 139.196 33.9019C139.896 34.6239 140.411 34.7145 140.597 34.748C140.735 34.7729 140.849 34.7916 140.948 34.7916C141.048 34.7916 141.097 34.8219 141.097 34.8857C141.097 34.9884 141.012 35.0102 140.857 35.0102H139.674C138.978 35.0102 138.66 34.9499 138.34 34.7729C137.801 34.4854 137.323 33.9019 136.627 32.9379C136.125 32.2544 135.552 31.4021 135.389 31.2177C135.326 31.1387 135.249 31.129 135.165 31.129L134.083 31.1041C134.018 31.1041 133.979 31.129 133.979 31.2017V31.3799C133.979 32.5392 133.979 33.5234 134.043 34.0497C134.083 34.4099 134.152 34.6869 134.531 34.7367C134.715 34.7628 134.991 34.7916 135.14 34.7916C135.239 34.7916 135.288 34.8219 135.288 34.8857C135.288 34.9717 135.201 35.0102 135.041 35.0102C134.316 35.0102 133.39 34.9717 133.204 34.9717C132.967 34.9717 132.176 35.0102 131.681 35.0102C131.52 35.0102 131.433 34.9717 131.433 34.8857C131.433 34.8219 131.478 34.7916 131.63 34.7916C131.82 34.7916 131.969 34.7628 132.079 34.7367C132.33 34.6869 132.391 34.4099 132.443 34.0497C132.505 33.5234 132.505 32.5392 132.505 31.3873V29.1925Z" fill="white"/>
<path fill-rule="evenodd" clip-rule="evenodd" d="M144.019 33.8218C142.791 32.7481 142.471 31.3507 142.471 30.1405C142.471 29.2944 142.733 27.8185 143.935 26.7176C144.828 25.8909 146.016 25.3906 147.879 25.3906C148.652 25.3906 149.116 25.4443 149.689 25.519C150.165 25.5789 150.565 25.6976 150.94 25.7291C151.074 25.7435 151.128 25.8065 151.128 25.8835C151.128 25.9835 151.089 26.127 151.065 26.5655C151.039 26.9821 151.049 27.6679 151.024 27.9146C151.013 28.1032 150.988 28.2048 150.875 28.2048C150.777 28.2048 150.753 28.1032 150.753 27.9278C150.738 27.5411 150.576 27.1101 150.265 26.7817C149.854 26.346 148.881 26.0053 147.73 26.0053C146.643 26.0053 145.929 26.2768 145.381 26.7817C144.469 27.615 144.23 28.8011 144.23 30.0133C144.23 32.9866 146.494 34.4598 148.166 34.4598C149.275 34.4598 149.95 34.3395 150.448 33.7603C150.663 33.5234 150.827 33.1585 150.875 32.9379C150.912 32.7356 150.94 32.6905 151.039 32.6905C151.128 32.6905 151.152 32.7753 151.152 32.8776C151.152 33.0239 151.003 34.1135 150.875 34.5368C150.809 34.748 150.763 34.8141 150.554 34.9005C150.051 35.0993 149.101 35.1899 148.302 35.1899C146.592 35.1899 145.156 34.8141 144.019 33.8218Z" fill="white"/>
<path fill-rule="evenodd" clip-rule="evenodd" d="M155.78 29.1926C155.78 27.2923 155.78 26.9402 155.759 26.543C155.734 26.1202 155.631 25.9179 155.221 25.8323C155.122 25.8066 154.91 25.7965 154.734 25.7965C154.597 25.7965 154.52 25.7708 154.52 25.6775C154.52 25.5919 154.608 25.5639 154.79 25.5639C155.136 25.5639 155.493 25.579 155.807 25.579C156.137 25.5919 156.423 25.607 156.596 25.607C156.995 25.607 159.479 25.607 159.719 25.5919C159.954 25.5639 160.154 25.5429 160.254 25.5191C160.319 25.5078 160.398 25.4678 160.45 25.4678C160.519 25.4678 160.526 25.5191 160.526 25.579C160.526 25.6681 160.464 25.8194 160.431 26.394C160.418 26.5177 160.398 27.0721 160.369 27.2152C160.356 27.2794 160.33 27.3526 160.246 27.3526C160.154 27.3526 160.13 27.2923 160.13 27.181C160.13 27.0935 160.119 26.878 160.053 26.7321C159.967 26.5061 159.841 26.354 159.218 26.2769C159.007 26.2528 157.692 26.2322 157.446 26.2322C157.381 26.2322 157.355 26.2656 157.355 26.354V29.517C157.355 29.603 157.374 29.652 157.446 29.652C157.717 29.652 159.16 29.652 159.444 29.6264C159.743 29.603 159.928 29.5661 160.042 29.4404C160.13 29.3396 160.181 29.277 160.246 29.277C160.29 29.277 160.33 29.3027 160.33 29.3789C160.33 29.4532 160.279 29.652 160.231 30.29C160.215 30.5378 160.181 31.0393 160.181 31.1291C160.181 31.2264 160.181 31.3621 160.067 31.3621C159.981 31.3621 159.954 31.3139 159.954 31.2528C159.945 31.1291 159.945 30.9677 159.907 30.8004C159.841 30.553 159.666 30.367 159.203 30.3157C158.967 30.29 157.73 30.2756 157.436 30.2756C157.374 30.2756 157.355 30.327 157.355 30.4032V31.3874C157.355 31.8122 157.347 32.9657 157.355 33.3282C157.381 34.1825 157.585 34.3766 158.856 34.3766C159.181 34.3766 159.705 34.3766 160.031 34.2292C160.356 34.0732 160.505 33.8172 160.596 33.301C160.613 33.1586 160.643 33.1115 160.731 33.1115C160.831 33.1115 160.831 33.2142 160.831 33.338C160.831 33.6262 160.731 34.4766 160.669 34.7244C160.581 35.0488 160.464 35.0488 159.994 35.0488C159.06 35.0488 158.372 35.0205 157.833 35.0103C157.293 34.9886 156.907 34.9718 156.539 34.9718C156.397 34.9718 156.121 34.9718 155.824 34.9886C155.533 34.9886 155.209 35.0103 154.96 35.0103C154.79 35.0103 154.709 34.9718 154.709 34.8859C154.709 34.8221 154.761 34.7917 154.91 34.7917C155.099 34.7917 155.248 34.7629 155.359 34.7369C155.61 34.6871 155.672 34.4101 155.722 34.0499C155.78 33.5235 155.78 32.5393 155.78 31.3874V29.1926Z" fill="white"/>
<path fill-rule="evenodd" clip-rule="evenodd" d="M164.951 34.8643C164.755 34.7729 164.713 34.7146 164.713 34.4384C164.713 33.7486 164.762 33.0013 164.777 32.8033C164.791 32.6135 164.823 32.4808 164.922 32.4808C165.039 32.4808 165.046 32.5917 165.046 32.6905C165.046 32.8492 165.095 33.1114 165.163 33.3281C165.435 34.2512 166.176 34.5881 166.949 34.5881C168.069 34.5881 168.623 33.8218 168.623 33.1585C168.623 32.5477 168.435 31.9774 167.397 31.1648L166.823 30.7128C165.449 29.641 164.977 28.7626 164.977 27.7555C164.977 26.3787 166.125 25.3906 167.86 25.3906C168.673 25.3906 169.201 25.519 169.522 25.6069C169.635 25.6357 169.698 25.668 169.698 25.7559C169.698 25.9177 169.65 26.2768 169.65 27.2544C169.65 27.531 169.609 27.6294 169.508 27.6294C169.423 27.6294 169.382 27.5543 169.382 27.4069C169.382 27.2921 169.322 26.9035 169.061 26.5798C168.871 26.346 168.509 25.9691 167.695 25.9691C166.774 25.9691 166.213 26.5059 166.213 27.2544C166.213 27.8313 166.502 28.2631 167.539 29.0563L167.885 29.317C169.398 30.4525 169.934 31.3138 169.934 32.503C169.934 33.2239 169.657 34.091 168.76 34.6745C168.133 35.0717 167.434 35.1899 166.774 35.1899C166.049 35.1899 165.487 35.0993 164.951 34.8643Z" fill="white"/>
<path fill-rule="evenodd" clip-rule="evenodd" d="M75.8918 49.4673C75.8918 47.5717 75.8918 47.2219 75.8697 46.8197C75.8444 46.3933 75.7207 46.1833 75.4433 46.1206C75.3087 46.081 75.1395 46.0759 74.9913 46.0759C74.8695 46.0759 74.7944 46.0471 74.7944 45.9413C74.7944 45.8724 74.8964 45.8452 75.0901 45.8452C75.5674 45.8452 76.3544 45.8806 76.7154 45.8806C77.0293 45.8806 77.7673 45.8452 78.2427 45.8452C78.4033 45.8452 78.5014 45.8724 78.5014 45.9413C78.5014 46.0471 78.4267 46.0759 78.3006 46.0759C78.1812 46.0759 78.0789 46.081 77.9252 46.1082C77.5907 46.1708 77.4919 46.3821 77.4697 46.8197C77.4409 47.2219 77.4409 47.5717 77.4409 49.4673V51.6641C77.4409 52.8771 77.4409 53.8644 77.4919 54.4047C77.5319 54.7408 77.6175 54.9626 77.9875 55.0108C78.166 55.0377 78.4395 55.0649 78.6294 55.0649C78.7659 55.0649 78.8262 55.1019 78.8262 55.1656C78.8262 55.2508 78.7293 55.2878 78.5893 55.2878C77.7673 55.2878 76.9784 55.2508 76.6407 55.2508C76.3544 55.2508 75.5674 55.2878 75.0714 55.2878C74.9111 55.2878 74.817 55.2508 74.817 55.1656C74.817 55.1019 74.8695 55.0649 75.0193 55.0649C75.2072 55.0649 75.3581 55.0377 75.4729 55.0108C75.7207 54.9626 75.793 54.7556 75.8339 54.3903C75.8918 53.8644 75.8918 52.8771 75.8918 51.6641V49.4673Z" fill="white"/>
<path fill-rule="evenodd" clip-rule="evenodd" d="M84.1983 53.5921C84.224 54.5651 84.3847 54.8903 84.636 54.977C84.8476 55.0505 85.0849 55.0649 85.2849 55.0649C85.4253 55.0649 85.4961 55.0891 85.4961 55.1657C85.4961 55.2622 85.3868 55.2878 85.2117 55.2878C84.3991 55.2878 83.8941 55.2509 83.6611 55.2509C83.5498 55.2509 82.9636 55.2878 82.3108 55.2878C82.1525 55.2878 82.0374 55.2781 82.0374 55.1657C82.0374 55.0891 82.1101 55.0649 82.2338 55.0649C82.3984 55.0649 82.624 55.0505 82.799 55.0043C83.127 54.9031 83.1729 54.5363 83.1857 53.4544L83.3024 46.0569C83.3024 45.8067 83.3347 45.6321 83.4623 45.6321C83.5969 45.6321 83.7101 45.7959 83.9252 46.018C84.0711 46.1833 85.9742 48.2186 87.7963 50.0299C88.6475 50.8807 90.33 52.6803 90.5405 52.8771H90.6089L90.4825 47.2683C90.4681 46.5039 90.3526 46.2701 90.0558 46.1432C89.8717 46.0759 89.5679 46.0759 89.3968 46.0759C89.2466 46.0759 89.1921 46.0343 89.1921 45.9573C89.1921 45.855 89.3345 45.8453 89.5209 45.8453C90.1713 45.8453 90.7708 45.8807 91.0326 45.8807C91.1711 45.8807 91.6433 45.8453 92.2537 45.8453C92.4167 45.8453 92.5439 45.855 92.5439 45.9573C92.5439 46.0343 92.4684 46.0759 92.3155 46.0759C92.1918 46.0759 92.0954 46.0759 91.9409 46.1082C91.5904 46.2109 91.4943 46.4708 91.4815 47.1706L91.343 55.0505C91.343 55.3248 91.2917 55.4435 91.1788 55.4435C91.0431 55.4435 90.8925 55.2991 90.7564 55.1657C89.9709 54.4129 88.3701 52.7779 87.0708 51.4914C85.7077 50.14 84.3224 48.5808 84.0968 48.3439H84.0641L84.1983 53.5921Z" fill="white"/>
<path fill-rule="evenodd" clip-rule="evenodd" d="M96.6004 55.1423C96.3989 55.0505 96.3655 54.9883 96.3655 54.7156C96.3655 54.0297 96.4125 53.2793 96.4231 53.0778C96.4382 52.8934 96.4744 52.7542 96.5736 52.7542C96.6856 52.7542 96.7008 52.8662 96.7008 52.9689C96.7008 53.1257 96.7498 53.3886 96.814 53.6003C97.0871 54.5254 97.8239 54.865 98.6 54.865C99.7188 54.865 100.273 54.1037 100.273 53.44C100.273 52.8312 100.083 52.2558 99.0485 51.4401L98.472 50.9931C97.098 49.9143 96.6242 49.0445 96.6242 48.0327C96.6242 46.6563 97.7706 45.6741 99.5072 45.6741C100.321 45.6741 100.845 45.7958 101.171 45.8806C101.284 45.9094 101.346 45.9413 101.346 46.0343C101.346 46.1996 101.297 46.5583 101.297 47.5297C101.297 47.8051 101.26 47.9062 101.159 47.9062C101.071 47.9062 101.031 47.8339 101.031 47.6802C101.031 47.5717 100.97 47.1838 100.711 46.8613C100.521 46.619 100.156 46.2475 99.3485 46.2475C98.4238 46.2475 97.8636 46.7843 97.8636 47.5297C97.8636 48.1066 98.1515 48.5407 99.1866 49.3308L99.536 49.5922C101.046 50.727 101.581 51.5922 101.581 52.7779C101.581 53.5007 101.304 54.3647 100.407 54.9482C99.7877 55.3485 99.0847 55.466 98.4238 55.466C97.699 55.466 97.1342 55.3742 96.6004 55.1423Z" fill="white"/>
<path fill-rule="evenodd" clip-rule="evenodd" d="M108.176 46.5474L106.316 46.5937C105.586 46.619 105.294 46.6805 105.106 46.9574C104.981 47.1465 104.912 47.2939 104.889 47.392C104.867 47.4943 104.829 47.5437 104.755 47.5437C104.668 47.5437 104.641 47.483 104.641 47.3453C104.641 47.1465 104.876 46.0106 104.91 45.9094C104.945 45.7414 104.981 45.6741 105.051 45.6741C105.153 45.6741 105.281 45.7958 105.586 45.8184C105.952 45.855 106.425 45.8806 106.837 45.8806H111.789C112.185 45.8806 112.459 45.8452 112.647 45.8184C112.835 45.7811 112.935 45.7604 112.986 45.7604C113.075 45.7604 113.085 45.8324 113.085 46.018C113.085 46.2829 113.047 47.1465 113.047 47.469C113.036 47.597 113.012 47.6693 112.935 47.6693C112.835 47.6693 112.808 47.6036 112.794 47.4243L112.789 47.2815C112.761 46.9574 112.425 46.6097 111.313 46.5844L109.739 46.5474V51.6641C109.739 52.8148 109.739 53.8002 109.805 54.3375C109.837 54.6899 109.913 54.9626 110.287 55.0108C110.462 55.0377 110.737 55.0649 110.923 55.0649C111.061 55.0649 111.124 55.1019 111.124 55.1657C111.124 55.2509 111.023 55.2878 110.887 55.2878C110.064 55.2878 109.28 55.2509 108.93 55.2509C108.638 55.2509 107.848 55.2878 107.353 55.2878C107.191 55.2878 107.099 55.2509 107.099 55.1657C107.099 55.1019 107.154 55.0649 107.3 55.0649C107.494 55.0649 107.644 55.0377 107.752 55.0108C108.005 54.9626 108.076 54.6899 108.113 54.3297C108.176 53.8002 108.176 52.8148 108.176 51.6641V46.5474Z" fill="white"/>
<path fill-rule="evenodd" clip-rule="evenodd" d="M117.346 49.4673C117.346 47.5717 117.346 47.2219 117.32 46.8197C117.295 46.3933 117.167 46.1833 116.896 46.1206C116.759 46.081 116.596 46.0759 116.441 46.0759C116.318 46.0759 116.243 46.0471 116.243 45.9413C116.243 45.8724 116.343 45.8452 116.539 45.8452C117.018 45.8452 117.808 45.8806 118.169 45.8806C118.481 45.8806 119.217 45.8452 119.692 45.8452C119.854 45.8452 119.953 45.8724 119.953 45.9413C119.953 46.0471 119.877 46.0759 119.754 46.0759C119.631 46.0759 119.533 46.081 119.381 46.1082C119.044 46.1708 118.939 46.3821 118.92 46.8197C118.893 47.2219 118.893 47.5717 118.893 49.4673V51.6641C118.893 52.8771 118.893 53.8644 118.939 54.4047C118.981 54.7408 119.066 54.9626 119.445 55.0108C119.614 55.0377 119.892 55.0649 120.083 55.0649C120.218 55.0649 120.279 55.1019 120.279 55.1656C120.279 55.2508 120.174 55.2878 120.038 55.2878C119.217 55.2878 118.429 55.2508 118.091 55.2508C117.808 55.2508 117.018 55.2878 116.517 55.2878C116.354 55.2878 116.267 55.2508 116.267 55.1656C116.267 55.1019 116.318 55.0649 116.468 55.0649C116.656 55.0649 116.806 55.0377 116.915 55.0108C117.167 54.9626 117.241 54.7556 117.278 54.3903C117.346 53.8644 117.346 52.8771 117.346 51.6641V49.4673Z" fill="white"/>
<path fill-rule="evenodd" clip-rule="evenodd" d="M126.608 46.5474L124.75 46.5937C124.026 46.619 123.725 46.6805 123.535 46.9574C123.411 47.1465 123.347 47.2939 123.327 47.392C123.297 47.4943 123.261 47.5437 123.189 47.5437C123.097 47.5437 123.078 47.483 123.078 47.3453C123.078 47.1465 123.312 46.0106 123.337 45.9094C123.376 45.7414 123.411 45.6741 123.488 45.6741C123.587 45.6741 123.713 45.7958 124.026 45.8184C124.389 45.855 124.862 45.8806 125.272 45.8806H130.22C130.62 45.8806 130.894 45.8452 131.087 45.8184C131.268 45.7811 131.371 45.7604 131.418 45.7604C131.506 45.7604 131.52 45.8324 131.52 46.018C131.52 46.2829 131.48 47.1465 131.48 47.469C131.469 47.597 131.444 47.6693 131.371 47.6693C131.268 47.6693 131.245 47.6036 131.23 47.4243L131.222 47.2815C131.196 46.9574 130.855 46.6097 129.749 46.5844L128.171 46.5474V51.6641C128.171 52.8148 128.171 53.8002 128.232 54.3375C128.271 54.6899 128.345 54.9626 128.721 55.0108C128.897 55.0377 129.169 55.0649 129.355 55.0649C129.498 55.0649 129.561 55.1019 129.561 55.1657C129.561 55.2509 129.459 55.2878 129.318 55.2878C128.497 55.2878 127.708 55.2509 127.356 55.2509C127.074 55.2509 126.286 55.2878 125.783 55.2878C125.621 55.2878 125.532 55.2509 125.532 55.1657C125.532 55.1019 125.587 55.0649 125.734 55.0649C125.922 55.0649 126.072 55.0377 126.18 55.0108C126.435 54.9626 126.509 54.6899 126.549 54.3297C126.608 53.8002 126.608 52.8148 126.608 51.6641V46.5474Z" fill="white"/>
<path fill-rule="evenodd" clip-rule="evenodd" d="M135.239 49.4673C135.239 47.5717 135.239 47.2219 135.212 46.8197C135.187 46.3933 135.09 46.1996 134.677 46.1082C134.573 46.081 134.366 46.0759 134.193 46.0759C134.057 46.0759 133.979 46.0471 133.979 45.9573C133.979 45.8724 134.064 45.8452 134.254 45.8452C134.913 45.8452 135.701 45.8806 136.077 45.8806C136.375 45.8806 137.159 45.8452 137.613 45.8452C137.801 45.8452 137.888 45.8724 137.888 45.9573C137.888 46.0471 137.812 46.0759 137.687 46.0759C137.553 46.0759 137.472 46.081 137.323 46.1082C136.991 46.1708 136.886 46.3821 136.864 46.8197C136.838 47.2219 136.838 47.5717 136.838 49.4673V51.2156C136.838 53.0284 137.2 53.7928 137.812 54.2892C138.373 54.7556 138.948 54.8023 139.375 54.8023C139.922 54.8023 140.592 54.6276 141.097 54.1274C141.785 53.44 141.819 52.3184 141.819 51.0296V49.4673C141.819 47.5717 141.819 47.2219 141.795 46.8197C141.776 46.3933 141.675 46.1996 141.26 46.1082C141.161 46.081 140.948 46.0759 140.815 46.0759C140.669 46.0759 140.592 46.0471 140.592 45.9573C140.592 45.8724 140.684 45.8452 140.857 45.8452C141.5 45.8452 142.284 45.8806 142.295 45.8806C142.448 45.8806 143.235 45.8452 143.723 45.8452C143.895 45.8452 143.983 45.8724 143.983 45.9573C143.983 46.0471 143.909 46.0759 143.76 46.0759C143.62 46.0759 143.548 46.081 143.396 46.1082C143.056 46.1708 142.958 46.3821 142.932 46.8197C142.907 47.2219 142.907 47.5717 142.907 49.4673V50.8017C142.907 52.1901 142.769 53.6644 141.721 54.565C140.837 55.3248 139.937 55.466 139.122 55.466C138.46 55.466 137.261 55.4286 136.351 54.6082C135.715 54.0297 135.239 53.1031 135.239 51.2907V49.4673Z" fill="white"/>
<path fill-rule="evenodd" clip-rule="evenodd" d="M150.037 46.5474L148.177 46.5937C147.452 46.619 147.154 46.6805 146.968 46.9574C146.843 47.1465 146.782 47.2939 146.752 47.392C146.73 47.4943 146.69 47.5437 146.616 47.5437C146.53 47.5437 146.503 47.483 146.503 47.3453C146.503 47.1465 146.738 46.0106 146.763 45.9094C146.803 45.7414 146.843 45.6741 146.916 45.6741C147.015 45.6741 147.138 45.7958 147.452 45.8184C147.813 45.855 148.29 45.8806 148.703 45.8806H153.649C154.05 45.8806 154.32 45.8452 154.512 45.8184C154.698 45.7811 154.797 45.7604 154.853 45.7604C154.935 45.7604 154.95 45.8324 154.95 46.018C154.95 46.2829 154.91 47.1465 154.91 47.469C154.895 47.597 154.873 47.6693 154.797 47.6693C154.698 47.6693 154.669 47.6036 154.662 47.4243L154.651 47.2815C154.622 46.9574 154.287 46.6097 153.179 46.5844L151.601 46.5474V51.6641C151.601 52.8148 151.601 53.8002 151.662 54.3375C151.702 54.6899 151.779 54.9626 152.147 55.0108C152.33 55.0377 152.596 55.0649 152.785 55.0649C152.927 55.0649 152.988 55.1019 152.988 55.1657C152.988 55.2509 152.885 55.2878 152.75 55.2878C151.921 55.2878 151.137 55.2509 150.792 55.2509C150.503 55.2509 149.712 55.2878 149.213 55.2878C149.052 55.2878 148.965 55.2509 148.965 55.1657C148.965 55.1019 149.012 55.0649 149.166 55.0649C149.351 55.0649 149.501 55.0377 149.612 55.0108C149.865 54.9626 149.937 54.6899 149.979 54.3297C150.037 53.8002 150.037 52.8148 150.037 51.6641V46.5474Z" fill="white"/>
<path fill-rule="evenodd" clip-rule="evenodd" d="M159.203 49.4672C159.203 47.5715 159.203 47.2218 159.182 46.8196C159.156 46.3932 159.06 46.1995 158.645 46.1081C158.544 46.0808 158.332 46.0758 158.155 46.0758C158.019 46.0758 157.942 46.047 157.942 45.9571C157.942 45.8723 158.03 45.8451 158.22 45.8451C158.558 45.8451 158.916 45.8548 159.236 45.8548C159.557 45.8723 159.841 45.8805 160.016 45.8805C160.418 45.8805 162.907 45.8805 163.14 45.8723C163.377 45.8451 163.579 45.8182 163.679 45.7957C163.743 45.7809 163.814 45.7412 163.878 45.7412C163.94 45.7412 163.953 45.7957 163.953 45.8548C163.953 45.9412 163.887 46.0937 163.855 46.6671C163.84 46.7923 163.814 47.3451 163.785 47.4941C163.778 47.5595 163.751 47.6287 163.665 47.6287C163.579 47.6287 163.552 47.5715 163.552 47.4575C163.552 47.3692 163.544 47.1592 163.475 47.0071C163.388 46.7842 163.268 46.6305 162.637 46.5581C162.429 46.5313 161.121 46.5037 160.867 46.5037C160.803 46.5037 160.778 46.5473 160.778 46.6305V49.7909C160.778 49.8823 160.793 49.9286 160.867 49.9286C161.142 49.9286 162.581 49.9286 162.866 49.9048C163.162 49.8823 163.348 49.8449 163.463 49.7189C163.552 49.6193 163.603 49.5567 163.665 49.5567C163.714 49.5567 163.751 49.5792 163.751 49.6528C163.751 49.7286 163.701 49.9286 163.651 50.5635C163.636 50.8148 163.603 51.3178 163.603 51.4026C163.603 51.5041 163.603 51.6465 163.489 51.6465C163.402 51.6465 163.377 51.592 163.377 51.5294C163.363 51.4026 163.363 51.2411 163.326 51.0793C163.268 50.8295 163.088 50.6401 162.631 50.5969C162.393 50.5635 161.15 50.5537 160.851 50.5537C160.793 50.5537 160.778 50.6047 160.778 50.6802V51.664C160.778 52.0903 160.767 53.2395 160.778 53.6001C160.803 54.4653 161.008 54.6481 162.275 54.6481C162.603 54.6481 163.127 54.6481 163.453 54.5007C163.778 54.3497 163.928 54.0903 164.015 53.574C164.037 53.4398 164.061 53.3885 164.154 53.3885C164.253 53.3885 164.253 53.4881 164.253 53.6145C164.253 53.9028 164.154 54.7555 164.089 55.0041C164 55.3246 163.887 55.3246 163.413 55.3246C162.477 55.3246 161.788 55.2989 161.255 55.2877C160.718 55.262 160.33 55.2507 159.954 55.2507C159.816 55.2507 159.542 55.2507 159.24 55.262C158.955 55.262 158.628 55.2877 158.381 55.2877C158.22 55.2877 158.134 55.2507 158.134 55.1655C158.134 55.1017 158.179 55.0648 158.332 55.0648C158.518 55.0648 158.671 55.0375 158.781 55.0107C159.033 54.9624 159.096 54.6897 159.142 54.3295C159.203 53.8001 159.203 52.8147 159.203 51.664V49.4672Z" fill="white"/>
</svg>
