<?xml version="1.0" standalone="no"?>
<!DOCTYPE svg PUBLIC "-//W3C//DTD SVG 20010904//EN"
 "http://www.w3.org/TR/2001/REC-SVG-20010904/DTD/svg10.dtd">
<svg version="1.0" xmlns="http://www.w3.org/2000/svg"
 width="910.000000pt" height="312.000000pt" viewBox="0 0 910.000000 312.000000"
 preserveAspectRatio="xMidYMid meet">

<g transform="translate(0.000000,312.000000) scale(0.100000,-0.100000)"
fill="#000000" stroke="none">
<path d="M4988 2835 c-128 -47 -194 -189 -154 -329 65 -224 396 -245 508 -33
18 34 23 58 23 127 0 75 -3 91 -28 132 -48 82 -123 118 -241 117 -39 0 -88 -7
-108 -14z m182 -46 c40 -23 76 -70 90 -120 17 -57 12 -169 -9 -215 -62 -136
-238 -118 -307 31 -44 94 -27 244 34 298 45 41 125 43 192 6z"/>
<path d="M3962 2827 c25 -10 35 -32 109 -254 49 -148 86 -243 93 -243 8 0 43
75 81 175 38 96 71 172 74 169 3 -3 38 -80 76 -171 39 -92 75 -168 82 -170 6
-2 28 46 53 124 100 301 121 353 149 368 24 13 21 14 -54 14 -58 0 -74 -3 -57
-9 12 -5 22 -16 22 -24 0 -13 -89 -318 -95 -324 -1 -1 -35 79 -76 178 -41 99
-78 178 -84 177 -5 -2 -38 -77 -71 -167 -34 -90 -66 -170 -71 -179 -6 -10 -23
34 -58 154 -47 162 -48 168 -30 181 16 12 7 14 -76 13 -78 -1 -89 -3 -67 -12z"/>
<path d="M5565 2833 c44 -12 45 -16 45 -238 0 -118 -3 -220 -6 -229 -3 -9 -15
-16 -26 -16 -10 0 -17 -4 -14 -9 8 -12 184 -12 192 0 3 5 -6 9 -20 9 -14 0
-27 3 -29 8 -3 4 -8 46 -12 95 l-7 87 39 0 c36 0 41 -4 100 -84 74 -101 98
-119 173 -124 59 -4 91 11 42 21 -32 7 -72 45 -153 143 l-58 72 34 36 c66 70
67 161 2 210 -26 19 -43 21 -175 23 -81 1 -138 -1 -127 -4z m214 -37 c35 -19
51 -55 51 -115 0 -34 -6 -56 -21 -75 -18 -23 -27 -27 -68 -24 l-46 3 -3 99
c-1 55 0 106 2 113 7 17 50 17 85 -1z"/>
<path d="M6175 2833 c44 -11 45 -16 45 -238 0 -118 -3 -220 -6 -229 -3 -9 -15
-16 -27 -16 -11 0 -17 -3 -13 -7 4 -4 76 -9 161 -11 147 -3 154 -2 165 18 6
11 10 38 8 58 l-4 37 -12 -28 c-15 -34 -54 -50 -109 -44 -74 8 -73 5 -73 232
0 212 1 217 45 228 11 2 -29 5 -90 5 -60 0 -101 -3 -90 -5z"/>
<path d="M6685 2833 c44 -11 45 -16 45 -238 0 -118 -3 -220 -6 -229 -3 -9 -15
-16 -26 -16 -10 0 -17 -4 -14 -8 2 -4 72 -9 154 -10 131 -2 156 0 206 18 73
28 109 59 140 122 51 103 30 238 -50 307 -56 49 -115 61 -303 60 -91 -1 -157
-4 -146 -6z m313 -52 c87 -44 128 -126 119 -236 -8 -109 -52 -158 -154 -177
-45 -7 -67 -7 -98 4 l-40 13 -3 200 c-1 110 0 206 3 214 8 20 122 8 173 -18z"/>
<path d="M5257 1756 c-52 -19 -75 -42 -87 -86 -18 -68 13 -129 105 -200 85
-66 107 -126 62 -168 -17 -16 -36 -22 -68 -22 -53 0 -83 25 -94 78 -10 49 -25
28 -25 -38 0 -56 1 -58 31 -69 18 -6 54 -11 81 -11 102 0 168 56 168 141 0 63
-16 94 -77 148 -115 102 -113 100 -113 135 0 42 26 66 74 66 39 0 86 -35 86
-65 0 -8 5 -15 10 -15 12 0 13 97 1 104 -22 14 -119 15 -154 2z"/>
<path d="M5827 1760 c-169 -43 -251 -212 -179 -372 39 -88 115 -138 223 -146
165 -12 285 89 297 249 11 162 -80 262 -252 274 -28 2 -68 0 -89 -5z m131 -49
c77 -39 112 -109 112 -226 0 -138 -50 -205 -153 -205 -121 0 -197 96 -197 249
0 157 115 245 238 182z"/>
<path d="M7821 1755 c-119 -34 -191 -127 -191 -248 0 -153 105 -253 277 -265
103 -7 162 4 172 31 12 33 21 97 13 97 -4 0 -15 -14 -24 -30 -38 -67 -148 -78
-235 -24 -69 43 -103 112 -103 209 0 95 27 151 90 183 89 45 223 15 245 -55
21 -65 28 -41 25 85 -1 25 -195 38 -269 17z"/>
<path d="M8925 1756 c-49 -19 -82 -55 -91 -101 -10 -54 28 -119 105 -181 93
-75 110 -117 70 -168 -17 -22 -29 -26 -68 -26 -53 0 -84 23 -96 73 -12 46 -25
30 -25 -32 0 -57 1 -59 31 -70 44 -15 123 -14 162 3 54 23 80 59 84 118 5 72
-16 109 -102 181 -38 32 -76 71 -84 88 -13 27 -13 32 6 57 38 51 134 36 149
-23 3 -14 10 -25 15 -25 12 0 12 97 0 104 -23 14 -119 15 -156 2z"/>
<path d="M4000 1752 c0 -6 12 -12 28 -14 l27 -3 3 -227 2 -227 -27 -15 c-26
-14 -22 -15 77 -15 99 1 103 1 73 15 l-33 14 0 90 0 90 30 0 c25 0 38 -12 94
-86 82 -110 103 -124 185 -124 67 0 72 7 18 25 -22 7 -58 41 -114 109 l-83 99
39 43 c47 50 60 98 39 152 -24 63 -61 76 -220 80 -90 3 -138 0 -138 -6z m251
-61 c26 -26 29 -36 29 -91 0 -51 -4 -65 -25 -85 -23 -24 -57 -31 -89 -19 -13
5 -16 25 -16 115 l0 109 36 0 c26 0 43 -8 65 -29z"/>
<path d="M4610 1751 c0 -5 12 -11 28 -13 l27 -3 3 -227 2 -227 -27 -15 c-26
-14 -16 -15 132 -13 l159 2 8 39 c5 25 5 43 -2 50 -7 7 -10 5 -10 -6 0 -32
-29 -48 -89 -48 -31 0 -62 5 -69 12 -8 8 -12 46 -12 105 l0 94 63 -3 c56 -3
62 -5 65 -25 4 -27 22 -31 22 -5 0 9 3 34 7 56 6 36 5 38 -15 27 -11 -6 -48
-11 -81 -11 l-61 0 0 90 0 90 43 0 c63 0 87 -10 99 -39 l11 -26 7 30 c20 80
29 75 -150 75 -92 0 -160 -4 -160 -9z"/>
<path d="M6330 1750 c0 -5 8 -10 18 -10 37 0 42 -19 42 -174 0 -158 9 -212 43
-260 58 -82 249 -88 319 -10 40 45 50 95 57 269 6 167 6 170 29 173 51 7 5 22
-68 22 -76 0 -120 -15 -63 -22 l28 -3 3 -178 c2 -149 0 -184 -14 -213 -41 -85
-175 -86 -221 -1 -14 26 -18 63 -21 190 -4 180 0 207 28 207 11 0 20 5 20 10
0 6 -40 10 -100 10 -60 0 -100 -4 -100 -10z"/>
<path d="M7030 1751 c0 -5 12 -11 28 -13 l27 -3 3 -227 2 -227 -27 -15 c-26
-14 -22 -15 77 -16 62 0 100 4 95 9 -6 5 -19 11 -30 13 -18 3 -20 12 -23 96
l-3 93 33 -3 c27 -2 41 -14 85 -73 28 -38 68 -85 87 -102 34 -31 40 -33 108
-32 61 0 69 2 48 11 -14 6 -36 15 -49 22 -13 6 -59 54 -102 106 l-78 94 39 42
c81 88 59 194 -46 223 -48 13 -274 15 -274 2z m243 -52 c74 -58 46 -209 -39
-209 -52 0 -54 5 -54 121 l0 109 34 0 c18 0 45 -9 59 -21z"/>
<path d="M8280 1750 c0 -5 11 -10 24 -10 13 0 27 -7 30 -16 9 -22 7 -427 -2
-440 -4 -6 -16 -16 -27 -22 -16 -9 15 -11 140 -9 l160 2 6 43 c7 54 1 60 -22
22 -17 -28 -23 -30 -77 -30 -32 0 -63 5 -70 12 -8 8 -12 46 -12 105 l0 93 49
0 c62 0 81 -7 81 -31 0 -10 5 -19 10 -19 6 0 10 11 10 24 0 13 3 38 6 56 7 30
6 32 -14 21 -11 -6 -48 -11 -81 -11 l-61 0 0 90 0 90 43 0 c62 0 87 -10 98
-38 12 -31 15 -28 22 31 l7 47 -160 0 c-100 0 -160 -4 -160 -10z"/>
<path d="M4455 438 c-4 -134 -9 -246 -12 -251 -2 -4 -13 -7 -24 -7 -10 0 -19
-4 -19 -10 0 -6 35 -10 85 -10 50 0 85 4 85 10 0 6 -9 10 -20 10 -32 0 -38 29
-42 192 l-3 155 180 -184 c99 -101 185 -183 191 -183 17 0 24 77 24 276 0 189
3 214 25 214 8 0 17 5 20 10 4 6 -26 10 -81 10 -53 0 -84 -4 -78 -9 5 -5 18
-11 29 -13 17 -3 21 -14 26 -73 4 -39 7 -117 8 -175 l1 -105 -186 193 c-102
105 -189 192 -193 192 -5 0 -12 -109 -16 -242z"/>
<path d="M5260 669 c-37 -15 -78 -58 -85 -90 -13 -58 11 -104 91 -176 108 -97
127 -141 79 -188 -52 -53 -146 -21 -161 55 -10 46 -24 25 -24 -35 0 -67 17
-79 110 -80 108 0 170 53 170 148 0 56 -33 105 -121 180 -75 63 -90 94 -65
131 33 52 117 40 147 -21 20 -40 29 -33 29 23 0 33 -5 46 -19 54 -25 13 -118
12 -151 -1z"/>
<path d="M5616 660 c-11 -38 -17 -80 -12 -80 3 0 16 11 30 25 22 22 34 25 91
25 l65 0 0 -209 c0 -115 -3 -216 -6 -225 -3 -9 -15 -16 -25 -16 -10 0 -19 -4
-19 -10 0 -6 40 -10 99 -10 56 0 103 4 106 10 3 6 -4 10 -17 10 -46 0 -48 11
-48 237 l0 213 49 0 c63 0 99 -14 110 -42 8 -19 10 -20 16 -7 3 9 5 33 3 53
l-3 37 -218 2 c-186 2 -218 0 -221 -13z"/>
<path d="M6604 669 c-11 -18 -15 -89 -5 -89 6 0 11 7 11 15 0 22 42 35 111 35
l59 0 0 -199 c0 -201 -7 -251 -35 -251 -8 0 -15 -4 -15 -10 0 -6 40 -10 100
-10 55 0 100 4 100 9 0 5 -12 11 -27 13 l-28 3 -3 223 -2 222 49 0 c64 0 97
-13 107 -42 7 -20 9 -19 15 17 14 73 24 70 -217 70 -119 0 -218 -3 -220 -6z"/>
<path d="M7852 635 c-11 -53 -7 -59 23 -29 21 21 34 24 90 24 l65 0 -2 -222
c-3 -223 -3 -223 -25 -226 -13 -2 -23 -8 -23 -13 0 -5 47 -9 105 -9 63 0 105
4 105 10 0 6 -11 10 -25 10 -14 0 -29 8 -35 19 -6 12 -10 103 -10 225 l0 206
55 0 c59 0 105 -16 105 -37 0 -7 5 -13 11 -13 6 0 9 18 7 45 l-3 46 -217 2
-218 2 -8 -40z"/>
<path d="M8615 670 c-144 -4 -162 -9 -110 -25 13 -4 15 -36 13 -232 l-3 -228
-23 -3 c-12 -2 -20 -8 -17 -13 8 -11 302 -12 309 -1 13 21 18 92 7 92 -6 0
-11 -6 -11 -14 0 -25 -42 -46 -92 -46 -69 0 -78 14 -78 120 0 49 3 91 8 93 4
2 32 1 62 -2 44 -5 57 -11 66 -29 l11 -23 7 23 c3 13 6 38 6 57 0 28 -3 32
-17 25 -10 -5 -45 -8 -78 -9 l-60 0 -3 88 -3 87 58 0 c65 0 74 -4 90 -40 11
-25 11 -25 18 11 15 77 19 75 -160 69z"/>
<path d="M4010 665 c0 -3 11 -10 25 -15 l25 -10 -2 -227 c-3 -228 -3 -228 -25
-231 -13 -2 -23 -8 -23 -13 0 -5 47 -9 105 -9 63 0 105 4 105 10 0 6 -13 10
-29 10 -17 0 -31 6 -35 16 -3 9 -6 112 -6 230 l0 214 25 10 c14 5 25 12 25 15
0 3 -43 5 -95 5 -52 0 -95 -2 -95 -5z"/>
<path d="M6230 665 c0 -3 11 -10 25 -15 l25 -10 -2 -227 c-3 -228 -3 -228 -25
-231 -13 -2 -23 -8 -23 -13 0 -5 47 -9 105 -9 63 0 105 4 105 10 0 6 -13 10
-29 10 -17 0 -31 6 -35 16 -3 9 -6 112 -6 230 l0 214 25 10 c14 5 25 12 25 15
0 3 -43 5 -95 5 -52 0 -95 -2 -95 -5z"/>
<path d="M7186 661 c5 -5 18 -11 29 -13 19 -3 20 -13 25 -183 5 -166 7 -183
29 -221 41 -73 145 -110 239 -85 55 15 118 72 133 119 6 21 13 112 16 205 5
153 7 167 24 167 10 0 21 5 24 10 4 6 -27 10 -86 10 -56 0 -89 -4 -83 -9 5 -5
18 -11 29 -13 19 -3 20 -12 23 -175 2 -133 -1 -181 -12 -207 -38 -91 -170 -99
-221 -13 -18 28 -20 55 -23 209 l-4 178 26 10 c14 5 26 12 26 15 0 3 -46 5
-102 5 -61 0 -98 -4 -92 -9z"/>
</g>
</svg>
