<svg width="15" height="15" viewBox="0 0 15 15" fill="none" xmlns="http://www.w3.org/2000/svg">
<path d="M7.87359 4.97301V9.30563M10.0564 7.13932H5.69079M14.422 7.13932C14.422 7.99277 14.2526 8.83787 13.9235 9.62636C13.5944 10.4148 13.1121 11.1313 12.504 11.7348C11.8959 12.3382 11.174 12.817 10.3796 13.1436C9.58507 13.4702 8.73354 13.6383 7.87359 13.6383C7.01365 13.6383 6.16212 13.4702 5.36763 13.1436C4.57314 12.817 3.85125 12.3382 3.24318 11.7348C2.6351 11.1313 2.15275 10.4148 1.82366 9.62636C1.49457 8.83787 1.3252 7.99277 1.3252 7.13932C1.3252 5.4157 2.01511 3.76266 3.24318 2.54388C4.47124 1.32509 6.13685 0.640381 7.87359 0.640381C9.61034 0.640381 11.2759 1.32509 12.504 2.54388C13.7321 3.76266 14.422 5.4157 14.422 7.13932Z" stroke="#189825" stroke-linecap="round" stroke-linejoin="round"/>
</svg>
