<svg width="13" height="13" viewBox="0 0 13 13" fill="none" xmlns="http://www.w3.org/2000/svg">
<path d="M8.28576 9.67625C9.45026 9.53837 10.5944 9.26356 11.6945 8.8575C10.7629 7.8255 10.2481 6.48406 10.2501 5.09375V4.65625V4.625C10.2501 3.63044 9.85505 2.67661 9.15179 1.97335C8.44853 1.27009 7.4947 0.875 6.50014 0.875C5.50557 0.875 4.55175 1.27009 3.84849 1.97335C3.14522 2.67661 2.75014 3.63044 2.75014 4.625V5.09375C2.75202 6.48414 2.237 7.8256 1.30514 8.8575C2.38826 9.2575 3.53014 9.53563 4.71451 9.67625M8.28576 9.67625C7.0995 9.81696 5.90077 9.81696 4.71451 9.67625M8.28576 9.67625C8.37583 9.95741 8.39822 10.2559 8.35113 10.5473C8.30403 10.8388 8.18878 11.115 8.01475 11.3535C7.84072 11.592 7.61283 11.786 7.34963 11.9198C7.08644 12.0535 6.79537 12.1232 6.50014 12.1232C6.2049 12.1232 5.91384 12.0535 5.65064 11.9198C5.38745 11.786 5.15956 11.592 4.98552 11.3535C4.81149 11.115 4.69624 10.8388 4.64914 10.5473C4.60205 10.2559 4.62445 9.95741 4.71451 9.67625M0.952637 3.6875C1.12887 2.64061 1.59876 1.66528 2.30764 0.875M10.6926 0.875C11.4015 1.66528 11.8714 2.64061 12.0476 3.6875" stroke="black" strokeWidth="1.2" stroke-linecap="round" stroke-linejoin="round"/>
</svg>
