<svg width="22" height="22" viewBox="0 0 22 22" fill="none" xmlns="http://www.w3.org/2000/svg">
<path d="M3.34766 11.9345C3.34766 11.4094 3.77382 10.9833 4.29892 10.9833H6.20145C6.72654 10.9833 7.15271 11.4094 7.15271 11.9345V17.6421C7.15271 18.1672 6.72654 18.5934 6.20145 18.5934H4.29892C4.04663 18.5934 3.80467 18.4932 3.62627 18.3148C3.44788 18.1364 3.34766 17.8944 3.34766 17.6421V11.9345ZM9.05524 8.12949C9.05524 7.60439 9.4814 7.17822 10.0065 7.17822H11.909C12.4341 7.17822 12.8603 7.60439 12.8603 8.12949V17.6421C12.8603 18.1672 12.4341 18.5934 11.909 18.5934H10.0065C9.75421 18.5934 9.51225 18.4932 9.33386 18.3148C9.15546 18.1364 9.05524 17.8944 9.05524 17.6421V8.12949ZM14.7628 4.32443C14.7628 3.79933 15.189 3.37317 15.7141 3.37317H17.6166C18.1417 3.37317 18.5679 3.79933 18.5679 4.32443V17.6421C18.5679 18.1672 18.1417 18.5934 17.6166 18.5934H15.7141C15.4618 18.5934 15.2198 18.4932 15.0414 18.3148C14.863 18.1364 14.7628 17.8944 14.7628 17.6421V4.32443Z" fill="#3654A5"/>
</svg>
