<svg width="15" height="14" viewBox="0 0 15 14" fill="none" xmlns="http://www.w3.org/2000/svg">
<path d="M8.92065 6.125C8.92065 6.58913 8.73628 7.03425 8.40809 7.36244C8.0799 7.69063 7.63478 7.875 7.17065 7.875C6.70653 7.875 6.26141 7.69063 5.93322 7.36244C5.60503 7.03425 5.42065 6.58913 5.42065 6.125C5.42065 5.66087 5.60503 5.21575 5.93322 4.88756C6.26141 4.55937 6.70653 4.375 7.17065 4.375C7.63478 4.375 8.0799 4.55937 8.40809 4.88756C8.73628 5.21575 8.92065 5.66087 8.92065 6.125Z" stroke="#3654A5" strokeWidth="0.75" stroke-linecap="round" stroke-linejoin="round"/>
<path d="M11.5457 6.125C11.5457 10.2912 7.17065 12.6875 7.17065 12.6875C7.17065 12.6875 2.79565 10.2912 2.79565 6.125C2.79565 4.96468 3.25659 3.85188 4.07706 3.03141C4.89753 2.21094 6.01033 1.75 7.17065 1.75C8.33098 1.75 9.44377 2.21094 10.2642 3.03141C11.0847 3.85188 11.5457 4.96468 11.5457 6.125Z" stroke="#3654A5" strokeWidth="0.75" strokeLinecap="round" strokeLinejoin="round"/>
</svg>
