<svg width="29" height="29" viewBox="0 0 29 29" fill="none" xmlns="http://www.w3.org/2000/svg">
<g clip-path="url(#clip0_15_13017)">
<path d="M13.3769 0.324142C12.0666 0.376972 11.5722 0.456219 10.3472 0.806219C9.18782 1.14081 8.27782 1.56125 7.29345 2.22383C6.92595 2.47037 6.89095 2.49678 6.90626 2.51219C6.92595 2.53201 7.40939 2.39773 7.70251 2.28987C8.06564 2.15779 8.2997 2.03892 8.39376 1.93766C8.46157 1.86502 8.48345 1.85622 8.6322 1.84081C8.85751 1.81439 8.88595 1.80559 9.2097 1.67571C9.70626 1.471 10.3144 1.27509 10.345 1.30811C10.3756 1.33892 10.345 1.36094 10.1175 1.4776C9.83095 1.62729 9.75657 1.69993 9.77626 1.8232C9.79157 1.92006 9.73689 1.9949 9.65376 1.9949C9.4722 1.9971 9.22282 2.25024 9.27314 2.38012C9.29064 2.43075 9.3672 2.41974 9.53345 2.3427C9.70845 2.26125 9.74564 2.27006 9.77407 2.40433C9.79595 2.50999 9.76314 2.59584 9.68876 2.63106C9.65595 2.64427 9.5072 2.65528 9.32345 2.65528C8.95376 2.65748 8.65407 2.69049 8.09407 2.79616C7.86657 2.83798 7.57126 2.88421 7.43782 2.89741C6.98282 2.94364 6.81439 3.00087 6.48626 3.2188C6.21939 3.3949 6.01595 3.60402 5.92626 3.79333C5.83001 3.99804 5.71189 4.13012 5.52157 4.24458C5.35314 4.34364 5.19564 4.50213 5.19564 4.57037C5.19564 4.61219 5.20657 4.6166 5.29626 4.60999C5.36626 4.60559 5.40126 4.61219 5.40782 4.632C5.41439 4.64741 5.29626 4.78609 5.14532 4.94018C4.87626 5.21754 4.70782 5.43987 4.68157 5.55653C4.66189 5.65559 4.48907 5.8559 4.30532 5.99678C4.21126 6.06722 4.10189 6.15748 4.0647 6.1949C3.99689 6.25653 3.97282 6.30936 4.01001 6.30936C4.05376 6.30936 4.34689 6.13987 4.65532 5.93735C4.84345 5.81408 5.0622 5.68421 5.13876 5.64898C5.23282 5.60496 5.30501 5.55433 5.35314 5.4927C5.54126 5.25496 6.29157 4.87634 6.5672 4.87855C6.68751 4.88075 6.72689 4.90276 6.78157 5.01062C6.81439 5.07446 6.82095 5.1449 6.82314 5.41125C6.82532 5.6798 6.83189 5.74144 6.86032 5.77226C6.89532 5.80527 6.8997 5.80527 6.94345 5.76125C6.9697 5.73483 6.98939 5.68641 6.98939 5.65119C6.98939 5.55873 7.05501 5.48609 7.11845 5.5059C7.20595 5.53232 7.2322 5.64458 7.21689 5.90213L7.20157 6.13106L7.25845 6.15307C7.3372 6.18389 7.36126 6.24113 7.36126 6.40182C7.36126 6.57792 7.30001 6.83106 7.18845 7.13483C7.05939 7.47603 7.02657 7.66974 7.0397 7.98012C7.04626 8.121 7.06595 8.2949 7.08564 8.36754C7.14032 8.57226 7.28032 8.83421 7.43564 9.02572C7.61064 9.24144 7.70032 9.40653 7.73095 9.57603C7.74407 9.64867 7.77251 9.73012 7.7922 9.76094C7.9147 9.93263 7.91251 9.92163 7.89939 10.1043L7.88626 10.2782L7.96501 10.3465C8.13782 10.4984 8.16845 10.5336 8.18157 10.593C8.20782 10.7251 8.31064 10.8924 8.43095 11.0002C8.49657 11.0597 8.56439 11.1081 8.5797 11.1081C8.63001 11.1081 8.6147 10.9452 8.55345 10.8638C8.41126 10.6679 8.40907 10.6635 8.42439 10.5446C8.43751 10.4323 8.43751 10.4323 8.33032 10.3245C8.25595 10.2496 8.18157 10.1329 8.08751 9.94804C7.86876 9.5188 7.8972 9.5232 8.29532 9.98987C8.46376 10.188 8.69126 10.4675 8.80501 10.6128C8.91657 10.7581 9.06751 10.9452 9.14189 11.0289C9.29939 11.2094 9.5422 11.4163 9.5947 11.4163C9.67564 11.4163 9.65814 11.4691 9.52689 11.6034C9.4197 11.7179 9.39345 11.7575 9.40001 11.8059C9.41095 11.8984 9.51157 11.9446 9.76095 11.9688C10.0563 11.9952 10.0956 12.015 10.0956 12.1251C10.0956 12.2374 10.1722 12.3122 10.3888 12.4157C10.5944 12.5147 10.8503 12.5763 11.2222 12.616C11.6684 12.6644 11.8325 12.7216 12.0513 12.8955C12.2 13.0122 12.4275 13.1201 12.6966 13.1993C13.0225 13.2962 13.2391 13.415 13.4403 13.6043C13.5366 13.6968 13.6394 13.8773 13.6394 13.9609C13.6394 14.016 13.6941 14.0688 13.7728 14.0864C13.8034 14.0952 13.8888 14.1458 13.9588 14.2031C14.1272 14.3352 14.2213 14.3814 14.4203 14.4342C14.6084 14.4826 14.7769 14.4892 14.8163 14.4496C14.8316 14.4342 14.8425 14.4012 14.8425 14.377C14.8425 14.2625 15.0153 14.2141 15.0984 14.3043C15.1225 14.3329 15.1509 14.3792 15.1597 14.41C15.1684 14.4408 15.1991 14.4892 15.2275 14.5201C15.3741 14.6785 15.4419 15.2817 15.3347 15.4886C15.3128 15.5304 15.2013 15.6625 15.0853 15.7858C14.8556 16.0257 14.7463 16.1798 14.6566 16.3823C14.475 16.794 14.4444 17.2892 14.5822 17.5622C14.6063 17.6084 14.6763 17.7273 14.7419 17.8263C14.9781 18.194 15.2756 18.7927 15.4463 19.2528C15.5338 19.4839 15.5534 19.5169 15.6694 19.627C15.7394 19.6952 15.9035 19.8119 16.0325 19.8889C16.4569 20.1377 16.6669 20.393 16.7259 20.7276C16.7522 20.8795 16.7544 20.8619 16.6275 21.6741C16.5969 21.8613 16.5575 22.1694 16.5378 22.3565C16.5203 22.5436 16.4941 22.7858 16.4831 22.8958C16.4722 23.0037 16.4175 23.2701 16.3628 23.4858C16.2447 23.9524 16.2184 24.0779 16.1331 24.5578C16.0566 24.9892 15.9997 25.1918 15.9253 25.2798C15.8575 25.3613 15.8575 25.3723 15.9231 25.3723C15.9516 25.3723 15.9888 25.3877 16.0041 25.4075C16.0281 25.4361 16.0238 25.4581 15.9734 25.5484C15.9363 25.6122 15.9144 25.687 15.9144 25.7399C15.9144 25.9402 16.1244 26.1977 16.3869 26.3232C16.5247 26.3892 16.8003 26.4509 16.9381 26.4487C17.0409 26.4487 17.1656 26.4046 17.1788 26.365C17.1853 26.3496 17.1153 26.2682 17.0213 26.1779C16.9163 26.0789 16.855 26.004 16.855 25.9754C16.855 25.9468 16.9294 25.8565 17.0519 25.7333C17.2531 25.5352 17.2772 25.4845 17.2138 25.4141C17.1919 25.3899 17.1831 25.3546 17.1919 25.3216C17.2378 25.1323 18.2266 24.2738 18.4738 24.2056C18.57 24.1792 18.7188 24.0273 18.7822 23.8908C18.8084 23.8314 18.8238 23.7477 18.8238 23.6619C18.8238 23.5386 18.8303 23.521 18.8784 23.488C18.9178 23.4616 18.9616 23.455 19.0359 23.4638C19.1803 23.4792 19.2963 23.4374 19.5172 23.2899C19.7141 23.1578 20.1297 22.7572 20.5497 22.2927C20.6635 22.1694 20.8494 21.9955 20.9653 21.9075C21.2103 21.7204 21.3284 21.5949 21.3481 21.5046C21.3744 21.388 21.4816 21.3065 21.8009 21.159C22.0022 21.0644 22.2297 20.8619 22.4178 20.6065C22.56 20.415 22.7416 20.0562 22.7831 19.8801C22.7963 19.8185 22.8575 19.6754 22.9166 19.5609C23.015 19.3716 23.1156 19.2263 23.5838 18.6144C23.7894 18.3436 23.8791 18.1477 23.8922 17.9364C23.8988 17.8396 23.8922 17.7405 23.8791 17.7053C23.8572 17.6524 23.8463 17.6458 23.7456 17.6458C23.6122 17.6458 23.5334 17.6084 23.3738 17.4697C23.225 17.3421 23.1156 17.2848 22.9516 17.2496C22.7766 17.2144 22.6125 17.144 22.1597 16.9128C21.4794 16.565 21.4685 16.5606 21.335 16.5496C21.2453 16.543 21.1972 16.5496 21.1622 16.576C21.0485 16.6553 21.0485 16.6024 21.1622 16.4506C21.2956 16.2723 21.3088 16.226 21.2388 16.1424C21.1644 16.0543 21.1206 15.9487 21.1206 15.8628C21.1206 15.7263 21.0025 15.5568 20.8166 15.4248C20.6635 15.3191 20.5497 15.2663 20.3266 15.2024C19.9722 15.1034 19.6025 14.8811 19.3072 14.5883C19.1344 14.4188 19.06 14.3065 19.0338 14.1701C19.0119 14.0556 18.9856 14.0358 18.8478 14.0358C18.5438 14.0358 18.3731 13.9697 18.4016 13.8597C18.4081 13.8355 18.4038 13.8157 18.3906 13.8157C18.3447 13.8157 18.3184 13.8817 18.325 13.9852C18.3316 14.0864 18.3294 14.0908 18.2681 14.0974C18.1959 14.1062 17.9225 14.0446 17.835 13.9984C17.7563 13.9609 17.7038 13.8773 17.7213 13.8267C17.7344 13.7958 17.7278 13.7914 17.6884 13.8046C17.625 13.8245 17.4478 13.7804 17.2794 13.7056C17.065 13.6065 17.0256 13.6043 16.9688 13.6836C16.8747 13.8113 16.7347 13.754 16.7872 13.6087C16.8156 13.5405 16.7938 13.5361 16.6559 13.5845C16.6034 13.6043 16.4722 13.644 16.3628 13.6748C16.0981 13.7496 15.9844 13.8157 15.7569 14.0292C15.6169 14.1635 15.5491 14.2119 15.5075 14.2119C15.4747 14.2119 15.3719 14.1767 15.2756 14.1326C15.0656 14.038 14.965 14.0336 14.7834 14.1106C14.5866 14.1943 14.4947 14.2031 14.3788 14.1502C14.1535 14.0512 14.0638 13.8091 14.0353 13.2213C14.0178 12.8471 13.9916 12.7635 13.8822 12.7062C13.7794 12.6512 13.6088 12.6424 13.2434 12.671C12.9284 12.6952 12.8891 12.6952 12.8584 12.6644C12.8256 12.6314 12.8278 12.6204 12.8869 12.5345C12.9372 12.4575 12.9481 12.4179 12.9459 12.3298C12.9416 12.2043 12.9831 12.0568 13.0728 11.8741C13.1078 11.8059 13.1516 11.6914 13.1713 11.6166C13.2063 11.4933 13.2063 11.4801 13.1713 11.4295C13.1275 11.3613 13.051 11.3568 12.7644 11.4031C12.5456 11.4383 12.515 11.4669 12.4253 11.7002C12.3334 11.9424 12.1978 12.0304 11.8544 12.0745C11.5547 12.1119 11.3884 12.0414 11.2397 11.8147C11.045 11.5241 10.94 11.1763 10.9531 10.8748C10.9597 10.7031 10.9706 10.6546 11.0319 10.5336C11.1697 10.2518 11.4497 10.0075 11.8653 9.80276C12.0906 9.6905 12.1038 9.6883 12.2963 9.68609C12.4056 9.68389 12.5063 9.67729 12.5194 9.66848C12.5303 9.66188 12.5478 9.62006 12.5544 9.57823C12.585 9.41754 12.7709 9.38232 13.1953 9.45496C13.6481 9.53201 13.74 9.60024 13.9478 10.0075C14.1359 10.3795 14.335 10.5776 14.4378 10.4918C14.5406 10.4059 14.37 9.88641 14.195 9.74993C14.0944 9.67289 14.0463 9.53641 14.0638 9.38232C14.09 9.171 14.1841 9.02131 14.4619 8.74616C14.6019 8.61188 14.7331 8.4688 14.7572 8.43138C14.8381 8.2993 14.8097 8.18043 14.615 7.86125C14.5713 7.78861 14.5363 7.72257 14.5363 7.71157C14.5363 7.67414 14.6106 7.70056 14.7047 7.7732C14.7594 7.81502 14.8163 7.85024 14.8316 7.85024C14.8469 7.85024 14.8666 7.81282 14.8753 7.7688C14.895 7.66314 14.9497 7.55527 15.1159 7.29993C15.2581 7.082 15.3238 6.93892 15.3238 6.85087C15.3238 6.82226 15.3456 6.77163 15.3697 6.73861L15.4178 6.67917L15.8181 6.69458L16.2184 6.71219L16.2578 6.64396C16.3059 6.56031 16.3716 6.52068 16.5334 6.47886C16.6888 6.43704 16.7413 6.39521 16.7566 6.28955C16.7785 6.16628 16.8047 6.11565 16.8703 6.08043C17.0322 5.99678 17.2334 6.021 17.3406 6.13766C17.3931 6.1949 17.4019 6.1971 17.4019 6.16188C17.4019 6.13766 17.4172 6.10024 17.4347 6.07603C17.4719 6.0298 17.4697 6.0298 17.5988 6.1949L17.6447 6.25433L17.636 6.15307C17.625 6.0276 17.5572 5.88892 17.4281 5.72163C17.3319 5.60056 17.3275 5.59616 17.3144 5.64898C17.2947 5.73263 17.2116 5.73043 17.1109 5.64678C17.065 5.60936 16.9316 5.44647 16.8113 5.28358C16.5356 4.91597 16.3431 4.74647 16.1988 4.74647C16.1113 4.74647 15.9253 4.60559 15.63 4.31722C15.2669 3.96282 15.175 3.88798 15.105 3.88798C15.0547 3.88798 15.0394 3.90339 15.0088 3.98483C14.9453 4.14993 14.8775 4.13672 14.4575 3.87257C13.9916 3.5798 13.845 3.52257 13.5913 3.54018C13.3813 3.55559 13.3331 3.54458 13.3178 3.46754C13.3113 3.42571 13.2609 3.36408 13.1778 3.29144C13.005 3.14175 12.9722 3.0493 12.9722 2.72792C12.9722 2.5254 12.9788 2.47477 13.0094 2.44395C13.0444 2.40873 13.051 2.40873 13.1341 2.44616C13.1888 2.47037 13.2413 2.47917 13.2785 2.47037C13.3528 2.45056 13.3988 2.48798 13.3988 2.56502C13.3988 2.65748 13.4228 2.71911 13.4622 2.72792C13.4819 2.73232 13.5541 2.72131 13.6263 2.7059C13.8144 2.66188 13.8559 2.70811 13.7706 2.8732C13.7269 2.96125 13.6481 3.03609 13.5322 3.09993C13.4556 3.14175 13.4403 3.2232 13.4972 3.28043C13.5366 3.31785 13.5628 3.32666 13.7334 3.35748C13.8888 3.38609 14.1841 3.50276 14.4969 3.65905C14.7856 3.80433 14.8841 3.82414 14.9497 3.7537C15.0306 3.66565 15.0438 3.56439 14.9956 3.40811C14.9716 3.33106 14.9519 3.21439 14.9519 3.14836C14.9519 2.97886 14.9103 2.90402 14.6128 2.54741C14.4269 2.32068 14.1491 2.07634 14.0069 2.01031C13.95 1.98389 13.9019 1.95527 13.9019 1.94867C13.9019 1.89364 14.2081 1.79678 14.3809 1.79678C14.51 1.79678 14.5253 1.80339 14.7769 1.98169C14.8184 2.01251 14.9059 2.05213 14.9672 2.07194C15.0678 2.10276 15.0919 2.12037 15.1641 2.23043C15.2472 2.3559 15.3041 2.39993 15.4156 2.42414C15.5119 2.44395 15.5403 2.48798 15.5359 2.62226C15.5338 2.71691 15.5447 2.75653 15.5819 2.80276C15.7372 2.99867 15.7613 3.03829 15.7613 3.11534C15.7613 3.18798 15.7656 3.19458 15.8269 3.19678C15.9166 3.20119 16.1419 3.35748 16.3956 3.59301C16.8025 3.96943 17.345 4.32823 17.5134 4.32823C17.5681 4.32823 17.5769 4.31943 17.5769 4.26439C17.5769 4.22917 17.5375 4.06188 17.4894 3.89458C17.2969 3.232 17.3647 2.84678 17.6972 2.72792C17.8306 2.67949 17.8438 2.63106 17.765 2.49678C17.6797 2.3515 17.5944 2.26785 17.4653 2.20622C17.3997 2.1754 17.24 2.06754 17.1109 1.96848C16.5138 1.50842 16.2053 1.3037 15.8269 1.1144C15.5272 0.962507 15.3719 0.911879 15.2078 0.905275C15.0875 0.900873 15.0481 0.889866 15.0044 0.848042C14.9344 0.782005 14.9366 0.707161 15.0109 0.658733C15.0613 0.625715 15.1313 0.616911 15.4441 0.610306C15.8334 0.601501 16.8572 0.641125 17.1394 0.676344C17.5506 0.724771 17.5725 0.726973 17.6316 0.687351C17.6775 0.656532 17.6841 0.643326 17.6644 0.619112C17.5791 0.515652 16.9184 0.416595 16.0019 0.365967C15.7547 0.352758 15.4003 0.332949 15.2144 0.321941C14.8316 0.297728 14.0134 0.297728 13.3769 0.324142ZM14.7091 0.619112C14.7572 0.66754 14.7156 0.696156 14.5931 0.696156C14.4488 0.696156 14.3984 0.654331 14.475 0.597099C14.5319 0.557476 14.6566 0.568483 14.7091 0.619112ZM12.9678 1.18924C13.0881 1.31471 13.1209 1.33452 13.2566 1.37634C13.3419 1.40056 13.5081 1.43138 13.6284 1.44238C14.0003 1.482 14.3 1.58546 14.3131 1.68012C14.3219 1.73295 14.3 1.74395 14.1097 1.76377C14.0266 1.77257 13.9194 1.80559 13.8231 1.85402C13.6438 1.94207 13.6613 1.94427 13.3375 1.77917C13.1341 1.67792 13.1297 1.67571 12.9372 1.68012C12.6878 1.68672 12.6769 1.67571 12.6769 1.37414C12.6769 0.999929 12.7447 0.958105 12.9678 1.18924ZM11.4628 1.62509C11.4934 1.63829 11.5241 1.67131 11.5306 1.69993C11.57 1.85402 11.4759 1.91345 11.3775 1.79678C11.3119 1.71534 11.3053 1.6537 11.36 1.62288C11.4059 1.59427 11.3972 1.59427 11.4628 1.62509ZM11.045 1.70653C11.0713 1.73735 11.08 1.77697 11.0756 1.85402C11.0669 1.9927 11.0209 2.0037 10.87 1.90244C10.7388 1.81439 10.73 1.75716 10.8394 1.70433C10.9378 1.6537 10.9991 1.6537 11.045 1.70653ZM10.1088 1.81219C10.2181 1.86282 10.2663 1.87163 10.4194 1.87163C10.5178 1.86943 10.5988 1.87603 10.5988 1.88483C10.5988 1.91125 10.4631 2.01031 10.3538 2.06314C10.2575 2.10936 10.2531 2.10936 10.1744 2.07194C10.1044 2.03892 9.89876 1.81439 9.89876 1.76817C9.89876 1.73735 9.98407 1.75496 10.1088 1.81219ZM12.0884 1.79899C12.0447 1.95968 12.0622 2.05213 12.1825 2.33169C12.2153 2.40873 12.2153 2.41534 12.1825 2.42854C12.13 2.44836 11.8019 2.10496 11.8019 2.03452C11.8019 1.96628 11.8544 1.89584 11.9616 1.8166C12.0513 1.75056 12.1038 1.74395 12.0884 1.79899ZM11.2244 2.171C11.4825 2.23704 11.5591 2.27446 11.5284 2.32509C11.4891 2.39112 10.9991 2.28546 10.9159 2.19301C10.8766 2.14898 10.8875 2.10496 10.9378 2.10496C10.9531 2.10496 11.0822 2.13358 11.2244 2.171ZM12.5456 2.3471C12.6069 2.40873 12.6003 2.48798 12.5259 2.57163C12.4713 2.63106 12.4538 2.63987 12.4209 2.62005C12.3597 2.58263 12.3553 2.40653 12.4122 2.3493C12.4691 2.29207 12.4909 2.29207 12.5456 2.3471ZM11.2441 2.61125C11.2441 2.67509 11.1063 2.76534 11.01 2.76534C10.9313 2.76534 10.9334 2.74112 11.0188 2.65528C11.1369 2.53641 11.2441 2.51439 11.2441 2.61125ZM10.3691 2.70811C10.4084 2.73672 10.4084 2.73892 10.3625 2.76314C10.3144 2.78955 10.0956 2.79616 10.0147 2.77414C9.96001 2.75873 9.94689 2.71031 9.99282 2.6927C10.0541 2.66628 10.3297 2.67729 10.3691 2.70811ZM10.0103 3.31565C10.0322 3.32886 10.0519 3.35087 10.0519 3.36628C10.0519 3.4015 9.65376 3.79993 9.61876 3.79993C9.59689 3.79993 9.59251 3.78452 9.60126 3.7493C9.61001 3.72289 9.62314 3.65905 9.6297 3.60842C9.64064 3.53138 9.63407 3.51377 9.5947 3.49395C9.52689 3.45653 9.41314 3.49395 9.27532 3.60182C9.11782 3.72289 9.07626 3.70527 9.19876 3.571C9.2972 3.46534 9.44157 3.37509 9.60345 3.32446C9.71064 3.28924 9.95126 3.28483 10.0103 3.31565ZM12.7534 3.48075C12.8256 3.50496 12.9 3.51377 12.9722 3.50496C13.0991 3.49175 13.1319 3.50716 13.1778 3.60402C13.2063 3.66565 13.2303 3.68106 13.3113 3.69647C13.4731 3.72949 13.5453 3.82414 13.5059 3.95842C13.4863 4.02886 13.4906 4.03546 13.6306 4.17194C13.7947 4.33043 13.8713 4.47572 13.8909 4.66282C13.9238 4.95779 13.9325 4.9688 14.1535 4.98861C14.3153 5.00182 14.3372 5.04804 14.2169 5.11848C14.09 5.19553 13.9609 5.22194 13.8559 5.19333L13.7663 5.16911L13.7816 5.26597C13.8034 5.41125 13.7641 5.42006 13.4491 5.34741C13.1538 5.27917 12.8234 5.26597 12.7053 5.3166C12.6659 5.332 12.6331 5.35622 12.6331 5.36723C12.6331 5.37823 12.6988 5.44867 12.7775 5.52571C12.9 5.64238 12.9197 5.6732 12.9131 5.72823C12.9088 5.77446 12.8934 5.79427 12.8584 5.79867C12.8191 5.80527 12.8059 5.79207 12.7906 5.73263C12.7731 5.6688 12.7622 5.65999 12.7075 5.66439C12.6703 5.6688 12.5872 5.64018 12.5084 5.60056L12.375 5.53232L12.305 5.58955C12.2241 5.65779 12.1716 5.66439 12.0928 5.61156C12.025 5.56754 11.9331 5.37823 11.9331 5.28578C11.9331 5.12729 12.1038 4.99081 12.3006 4.98861C12.4013 4.98861 12.48 5.04584 12.48 5.11848C12.48 5.17131 12.5325 5.21534 12.5828 5.20433C12.6156 5.19773 12.62 5.17792 12.6156 5.09647C12.6091 5.00842 12.6156 4.98861 12.6681 4.94678C12.76 4.87414 12.7884 4.88515 12.7819 4.99301L12.7753 5.08767L12.8672 5.08546C12.97 5.08326 13.0706 5.02823 13.0706 4.971C13.0706 4.94899 13.0378 4.91156 13.0006 4.88955C12.9372 4.85213 12.8891 4.84553 12.6331 4.84553C12.2875 4.84553 12.2919 4.84773 11.9659 4.54836C11.8588 4.4493 11.7253 4.34584 11.6706 4.31943C11.5809 4.2754 11.5722 4.26439 11.5766 4.19836C11.5809 4.0927 11.6488 4.01125 11.7384 4.00245C11.8391 3.99144 11.9113 3.93641 12.1628 3.67666C12.3903 3.44112 12.4756 3.3927 12.5894 3.42792C12.62 3.43672 12.6944 3.46094 12.7534 3.48075ZM10.9488 3.54679C10.9838 3.59081 10.9597 3.68326 10.9028 3.71188C10.8416 3.7449 10.7497 3.73169 10.7213 3.68326C10.7016 3.65024 10.7103 3.63263 10.7694 3.5776C10.8481 3.50716 10.9072 3.49615 10.9488 3.54679ZM10.3691 3.73389C10.3756 3.7449 10.3406 3.79333 10.2903 3.84175C10.2094 3.9166 10.2006 3.932 10.2247 3.96282C10.2706 4.01785 10.3538 4.00465 10.4194 3.93421C10.5681 3.77571 10.7409 3.78892 10.6819 3.95622C10.6338 4.0949 10.7672 4.16534 10.835 4.03766C10.8897 3.932 11.0034 3.82194 11.0559 3.82194C11.1325 3.82194 11.1894 3.89898 11.1894 4.00024C11.1894 4.11471 11.1631 4.16094 11.08 4.19616C11.0056 4.22697 10.9925 4.26219 11.0581 4.26219C11.08 4.26219 11.1566 4.20276 11.2288 4.12572C11.3184 4.03326 11.3709 3.99584 11.395 4.00465C11.4891 4.04207 11.3863 4.21377 11.0931 4.50653C10.9641 4.63641 10.8831 4.73326 10.8831 4.76188C10.8831 4.78829 10.9159 4.83232 10.9597 4.86534C11.1019 4.9754 11.0581 5.01062 10.7847 5.01062C10.6841 5.01062 10.5878 5.00402 10.5681 4.99741C10.5178 4.9776 10.5266 4.92477 10.5878 4.87414C10.6184 4.84993 10.6425 4.81691 10.6425 4.8015C10.6425 4.76848 10.4719 4.6144 10.4347 4.6144C10.4216 4.6144 10.3866 4.64301 10.3538 4.68043C10.3231 4.71565 10.2772 4.74647 10.2509 4.74647C10.1722 4.74647 9.69532 4.54836 9.66907 4.50433C9.66251 4.49113 9.70845 4.4493 9.77189 4.40968C9.83532 4.37005 9.92282 4.31502 9.96439 4.28641L10.0409 4.23798L9.9272 4.25119C9.77189 4.271 9.72814 4.25339 9.71939 4.16754C9.71501 4.11471 9.70189 4.0949 9.6647 4.0905C9.49626 4.06628 9.71939 3.87697 10.0628 3.7537C10.1831 3.71188 10.3472 3.70087 10.3691 3.73389ZM15.0678 4.4471C15.0963 4.51754 14.8644 4.73987 14.7922 4.71125C14.6806 4.66943 14.8578 4.41848 14.9978 4.41628C15.0306 4.41628 15.0613 4.42949 15.0678 4.4471ZM11.6334 4.49553C11.7144 4.53735 11.78 4.59238 11.78 4.6166C11.78 4.6276 11.7603 4.64521 11.7363 4.65842C11.6488 4.70685 11.4519 4.59899 11.4519 4.50433C11.4519 4.4493 11.535 4.4449 11.6334 4.49553ZM14.2694 5.37603C14.3613 5.43987 14.3088 5.60496 14.195 5.60496C14.1316 5.60496 13.9894 5.48169 13.9894 5.42666C13.9894 5.34301 14.1753 5.30779 14.2694 5.37603ZM14.6325 5.35402C14.6522 5.36062 14.6872 5.40024 14.7113 5.44207C14.7966 5.57855 14.6806 5.66439 14.5691 5.54993C14.5078 5.4905 14.5056 5.47729 14.5363 5.39804C14.5581 5.33861 14.5734 5.332 14.6325 5.35402ZM15.7547 5.54112C15.8597 5.57855 16.0456 5.70182 16.0456 5.73043C16.0456 5.77006 15.9231 5.78766 15.6978 5.77886C15.5469 5.77226 15.4922 5.76125 15.4616 5.73263C15.4288 5.69962 15.4288 5.68861 15.455 5.63798C15.5119 5.53232 15.63 5.4927 15.7547 5.54112ZM16.4088 5.64238C16.435 5.76345 16.4306 5.76125 16.5859 5.75465C16.7325 5.74804 16.7347 5.74804 16.7413 5.80527C16.75 5.87131 16.4941 6.38861 16.4459 6.40842C16.4241 6.41502 16.3934 6.371 16.3519 6.27414C16.2097 5.95716 16.1944 5.80968 16.2863 5.65999C16.3431 5.56754 16.3891 5.56094 16.4088 5.64238ZM12.6966 5.8405C12.9328 5.97917 13.0706 6.10245 13.0334 6.14207C13.0094 6.16408 12.2788 6.15748 12.1913 6.13106C12.0884 6.10245 12.0863 6.06502 12.1869 5.97477C12.41 5.77006 12.5259 5.73924 12.6966 5.8405ZM15.9603 6.30936C15.9822 6.32257 16.0019 6.34678 16.0019 6.3644C16.0019 6.40182 15.8728 6.43043 15.7941 6.41062C15.7284 6.39301 15.6978 6.33578 15.7416 6.30716C15.7831 6.28075 15.9078 6.28295 15.9603 6.30936Z" fill="#1B808D"/>
<path d="M12.0753 4.45818C12.0447 4.51101 12.3509 4.72674 12.4625 4.73334C12.5588 4.73774 12.5741 4.6607 12.4909 4.58365C12.4034 4.50221 12.1038 4.41196 12.0753 4.45818Z" fill="#1B808D"/>
<path d="M13.6853 4.78177C13.6372 4.8434 13.6219 4.96667 13.6613 4.96667C13.6853 4.96667 13.7685 4.80158 13.7706 4.75095C13.7706 4.70693 13.7335 4.72013 13.6853 4.78177Z" fill="#1B808D"/>
<path d="M10.4675 4.35695C10.4675 4.40758 10.6359 4.54846 10.6972 4.54846C10.789 4.54846 10.7672 4.47142 10.66 4.40758C10.5287 4.33494 10.4675 4.31733 10.4675 4.35695Z" fill="#1B808D"/>
<path d="M18.8894 3.44118C18.7625 3.45879 18.5613 3.52042 18.5372 3.54904C18.5175 3.57325 18.5197 3.57985 18.5547 3.57985C18.6313 3.57985 18.6947 3.64369 18.6794 3.70313L18.6663 3.75816L18.8041 3.74275C18.9506 3.72954 18.9397 3.72734 19.2897 3.86822C19.5063 3.95847 19.7863 3.92105 19.7863 3.80218C19.7863 3.64809 19.1694 3.40155 18.8894 3.44118Z" fill="#1B808D"/>
<path d="M3.92466 5.16261C3.83498 5.19122 3.76716 5.23084 3.69279 5.30349C3.60529 5.38713 3.6031 5.40915 3.68185 5.39374C3.72341 5.38493 3.76279 5.39814 3.81529 5.43776C3.85685 5.46858 3.90935 5.495 3.93123 5.495C4.04279 5.495 4.26591 5.31449 4.2506 5.23965C4.23529 5.1582 4.06904 5.12078 3.92466 5.16261Z" fill="#1B808D"/>
<path d="M25.1675 5.25068C25.1675 5.27489 25.1762 5.31891 25.1893 5.34973C25.2003 5.38055 25.2047 5.42237 25.1959 5.44219C25.1828 5.47741 25.1675 5.47741 24.9575 5.43778L24.8897 5.42457L24.9006 5.54344C24.9093 5.66231 24.9093 5.66451 24.8175 5.74376C24.7365 5.8142 24.7234 5.83841 24.7147 5.92866C24.7081 6.00791 24.7168 6.05854 24.7562 6.13338C24.8503 6.31829 24.999 6.29847 25.0865 6.08715C25.1128 6.02772 25.1434 5.98149 25.1565 5.9859C25.1828 5.9947 25.209 6.12678 25.209 6.26105C25.2134 6.45917 25.2528 6.54722 25.3993 6.6903C25.4759 6.76294 25.5393 6.83338 25.5393 6.84439C25.5393 6.8642 25.454 6.85759 25.3162 6.82458C25.2222 6.80256 25.2397 6.84659 25.43 7.11294C25.7034 7.49156 25.8325 7.79093 25.7822 7.923C25.769 7.95602 25.745 7.98904 25.7253 7.99564C25.7078 8.00225 25.594 7.96263 25.4737 7.90539C25.0472 7.70508 25.0165 7.72489 24.9903 8.22017C24.9815 8.39847 24.9531 8.67583 24.9268 8.83432C24.9006 8.99502 24.8831 9.15791 24.8875 9.19753L24.894 9.27017L25.0493 9.28118C25.1347 9.28778 25.22 9.30539 25.2397 9.3208C25.2572 9.33621 25.279 9.39124 25.2878 9.44187C25.3075 9.56954 25.3206 9.61137 25.3425 9.61137C25.3512 9.61137 25.419 9.57174 25.4912 9.52332C25.6793 9.39564 25.6968 9.41105 25.5722 9.59376C25.5087 9.68401 25.4978 9.71923 25.5087 9.77646C25.5197 9.83369 25.5065 9.86451 25.4409 9.95256C25.314 10.1199 25.2768 10.1903 25.2768 10.2673C25.2768 10.3224 25.255 10.362 25.1784 10.4368C25.045 10.5733 24.7693 10.7494 24.6293 10.7912C24.5637 10.8089 24.5047 10.8375 24.4959 10.8507C24.4872 10.8661 24.4609 10.9453 24.4412 11.0312C24.4193 11.1148 24.3472 11.2997 24.2815 11.4384C24.1153 11.7884 24.0737 11.9425 24.0518 12.2925C24.0365 12.5567 24.03 12.5919 23.9775 12.6689C23.925 12.7438 23.9162 12.7834 23.8965 13.0717C23.879 13.2963 23.879 13.479 23.8943 13.6859C23.9206 14.0183 23.9425 14.1019 24.0059 14.1019C24.0847 14.1019 24.1984 14.2318 24.3056 14.4387C24.5506 14.9186 24.7978 15.1761 25.0865 15.2488C25.1806 15.2708 25.2047 15.2686 25.3272 15.2224C25.4409 15.1783 25.5065 15.1695 25.7253 15.1695C26.0162 15.1673 26.0075 15.1695 26.2437 15.0243C26.5237 14.8548 26.6659 14.8614 26.7118 15.0463C26.7403 15.1695 26.8015 15.218 26.9547 15.2378C27.0312 15.2466 27.0925 15.2686 27.1209 15.2972C27.1603 15.3368 27.1625 15.3544 27.145 15.5305C27.134 15.634 27.1253 15.8982 27.1275 16.1161C27.1297 16.4639 27.1362 16.5475 27.1909 16.7985C27.2259 16.9658 27.2522 17.1529 27.2522 17.2497C27.2543 17.395 27.2434 17.439 27.1647 17.6239C27.1143 17.7384 27.0575 17.8947 27.04 17.9673C26.9853 18.1853 26.9022 18.7642 26.8518 19.2859C26.76 20.2566 26.725 20.5318 26.6528 20.8356C26.6309 20.9368 26.6156 21.0271 26.6243 21.0337C26.6484 21.0579 26.7818 20.8554 26.97 20.501C27.1122 20.2368 27.309 19.9815 27.4206 19.9133C27.6415 19.7812 27.7443 19.6381 27.834 19.3343C27.904 19.1076 27.9259 18.9711 27.9478 18.6365C27.974 18.2205 28.0156 17.9365 28.1315 17.3598C28.405 16.0236 28.5122 14.7337 28.4334 13.7585C28.3875 13.1906 28.265 12.3321 28.0965 11.3724C27.9959 10.8022 27.9937 10.7912 27.915 10.6966C27.8384 10.6085 27.6962 10.5161 27.6722 10.5403C27.6634 10.5469 27.6743 10.6063 27.6918 10.668C27.7268 10.7868 27.7225 10.8221 27.6743 10.8221C27.6437 10.8221 27.4447 10.5205 27.2697 10.2123C27.1909 10.0714 27.1581 9.98998 27.1625 9.94816C27.1778 9.81168 27.3528 9.87992 27.6087 10.1199C27.8515 10.3444 27.8756 10.3268 27.7815 9.99879C27.6634 9.58935 27.2828 8.68023 26.9065 7.90539C26.6572 7.3925 26.5084 7.14376 26.4275 7.10634C26.3968 7.09313 26.3509 7.03149 26.3159 6.95445C26.1584 6.61546 26.1037 6.5186 25.9068 6.22143C25.699 5.90665 25.4759 5.63369 25.4737 5.68873C25.4737 5.72395 25.5262 5.82961 25.7078 6.15979C25.885 6.48338 25.9025 6.58904 25.8084 6.77174C25.7297 6.92583 25.6925 6.93904 25.6925 6.81137C25.6925 6.66608 25.6422 6.5142 25.4518 6.10036C25.2637 5.68652 25.2222 5.54785 25.244 5.40036C25.2528 5.34093 25.2506 5.28369 25.2353 5.25508C25.2025 5.19785 25.1675 5.19564 25.1675 5.25068ZM26.5697 8.54816C26.7206 8.67803 26.9722 9.13149 27.0837 9.47709C27.145 9.6664 27.1472 9.77206 27.0903 9.78307C27.0465 9.79187 27.005 9.68621 27.005 9.56514C27.005 9.50571 26.994 9.47929 26.9678 9.47049C26.8912 9.44627 26.62 9.41325 26.4975 9.41325C26.2897 9.41325 26.1518 9.37363 26.0665 9.28778C25.9965 9.21734 25.9943 9.20854 26.0053 9.08967C26.0337 8.82332 26.2809 8.48873 26.4515 8.48873C26.4778 8.48873 26.5303 8.51514 26.5697 8.54816ZM27.425 9.62678C27.5125 9.72143 27.5365 9.78086 27.5081 9.83149C27.4447 9.95256 27.2675 9.80728 27.2675 9.63338C27.2675 9.57835 27.2762 9.56734 27.3178 9.56734C27.3462 9.56734 27.3943 9.59376 27.425 9.62678Z" fill="#1B808D"/>
<path d="M3.72563 6.44373C3.68188 6.46795 3.67313 6.57361 3.71469 6.57361C3.72782 6.57361 3.77157 6.54939 3.80657 6.51858C3.86125 6.47235 3.86782 6.46134 3.83938 6.44153C3.79782 6.41512 3.77375 6.41512 3.72563 6.44373Z" fill="#1B808D"/>
<path d="M2.57279 7.00504C2.54217 7.04466 2.52686 7.09529 2.52686 7.15913C2.52686 7.24057 2.53342 7.25598 2.57061 7.25598C2.63404 7.25598 2.70404 7.13271 2.69748 7.03586C2.68873 6.939 2.63623 6.92359 2.57279 7.00504Z" fill="#1B808D"/>
<path d="M3.03437 7.10849C2.98187 7.16573 2.99062 7.18994 3.06281 7.18994C3.11969 7.18994 3.16125 7.15032 3.16125 7.09749C3.16125 7.04026 3.09125 7.04686 3.03437 7.10849Z" fill="#1B808D"/>
<path d="M25.5087 7.67645C25.4409 7.72928 25.4365 7.7557 25.4956 7.77331C25.559 7.79312 25.6268 7.74689 25.6268 7.68526C25.6268 7.61702 25.5875 7.61482 25.5087 7.67645Z" fill="#1B808D"/>
<path d="M1.98653 7.95154C1.85309 8.09682 1.52716 8.82984 1.34778 9.39997C1.30841 9.52104 1.26466 9.71034 1.24716 9.82261C1.21434 10.0449 1.19684 10.0912 1.10278 10.199C0.945281 10.3817 0.739656 11.4229 0.599656 12.7261C0.538406 13.2896 0.527468 14.2273 0.579968 14.333C0.621531 14.4166 0.700281 14.432 0.719968 14.3616C0.728718 14.333 0.744031 13.9764 0.754968 13.5647C0.776843 12.7921 0.805281 12.5059 0.884031 12.332C0.945281 12.1934 1.00216 12.1537 1.13341 12.1581C1.26028 12.1647 1.29309 12.1449 1.31278 12.0525C1.33684 11.9424 1.30184 11.8147 1.22528 11.7267C1.13997 11.632 1.11153 11.5352 1.09184 11.282C1.06559 10.9408 1.15747 10.3157 1.25153 10.1858C1.34559 10.0603 1.43309 10.122 1.48559 10.3553C1.50091 10.428 1.52497 10.4808 1.54247 10.4808C1.57528 10.4808 1.71747 10.2364 1.80716 10.0273C1.92528 9.74777 1.98434 9.50783 1.99528 9.23487C2.00841 8.97512 1.99091 8.88487 1.92747 8.88487C1.87278 8.88487 1.84872 8.94431 1.81809 9.17544C1.77872 9.44619 1.72403 9.60468 1.61684 9.74997C1.49653 9.91506 1.43309 9.91066 1.43309 9.74116C1.43309 9.47261 1.63216 9.01915 1.88153 8.72418C2.07184 8.49745 2.10028 8.42261 2.06309 8.24431C2.03247 8.09022 2.04778 8.03959 2.12216 8.0572C2.16809 8.06821 2.17684 8.0638 2.17684 8.01978C2.17684 7.96254 2.11997 7.87229 2.08497 7.87229C2.07184 7.87229 2.02809 7.90751 1.98653 7.95154Z" fill="#1B808D"/>
<path d="M25.2331 9.85348C25.2047 9.90631 25.2222 9.94153 25.2747 9.94153C25.3184 9.94153 25.3862 9.87549 25.3862 9.83587C25.3862 9.78964 25.2593 9.80505 25.2331 9.85348Z" fill="#1B808D"/>
<path d="M13.8625 11.0884C13.6043 11.2183 13.5846 11.3349 13.8209 11.3349C13.9565 11.3349 13.9893 11.3195 13.9893 11.2645C13.9893 11.1963 14.0506 11.1676 14.1862 11.1676C14.335 11.1676 14.3896 11.2007 14.3787 11.2821C14.37 11.3371 14.3743 11.3393 14.5034 11.3393C14.6128 11.3415 14.6762 11.3592 14.8862 11.4538C15.1859 11.5881 15.2756 11.6145 15.4287 11.6145C15.56 11.6145 15.5796 11.5771 15.4834 11.5088C15.315 11.39 14.7046 11.1324 14.4071 11.0532C14.1928 10.9981 14.0178 11.0092 13.8625 11.0884Z" fill="#1B808D"/>
<path d="M16.3781 11.883C16.2556 12.0393 16.2294 12.0547 16.0916 12.0547C15.9734 12.0547 15.9581 12.0591 15.9581 12.0988C15.9581 12.1406 15.9756 12.1494 16.1222 12.1714C16.2053 12.1846 17.135 12.1032 17.2006 12.0768C17.2269 12.0658 17.2488 12.0415 17.2488 12.0217C17.2488 11.9579 17.1306 11.9227 16.9163 11.9227C16.7719 11.9205 16.6778 11.9095 16.5925 11.8786C16.4394 11.8236 16.4241 11.8236 16.3781 11.883Z" fill="#1B808D"/>
<path d="M15.2494 12.0833C15.1509 12.1647 15.1838 12.2087 15.3391 12.2087C15.5206 12.2087 15.5469 12.1845 15.4659 12.0987C15.3894 12.0194 15.3347 12.015 15.2494 12.0833Z" fill="#1B808D"/>
<path d="M17.5506 12.101C17.4959 12.156 17.4872 12.1736 17.5134 12.189C17.555 12.2154 17.7759 12.2132 17.8175 12.1868C17.8459 12.167 17.8394 12.1538 17.7781 12.0988C17.6884 12.0151 17.6338 12.0151 17.5506 12.101Z" fill="#1B808D"/>
<path d="M1.33033 12.8186C1.27127 12.9066 1.28002 13.2831 1.34345 13.5186C1.4047 13.7431 1.43752 13.7937 1.52064 13.7937C1.6147 13.7937 1.6322 13.8466 1.61689 14.0623C1.60377 14.2186 1.60814 14.2494 1.63877 14.278C1.72627 14.3485 1.95814 14.1371 1.95814 13.9875C1.95814 13.9038 1.93627 13.8708 1.7372 13.6441C1.54908 13.4349 1.43314 13.173 1.43314 12.9595C1.43314 12.8406 1.41345 12.7592 1.3872 12.7592C1.37627 12.7592 1.35002 12.7856 1.33033 12.8186Z" fill="#1B808D"/>
<path d="M1.32593 14.1723C1.2253 14.3726 1.23843 14.562 1.34343 14.4563C1.4178 14.3815 1.46811 14.0821 1.41343 14.0491C1.40249 14.0403 1.36311 14.0975 1.32593 14.1723Z" fill="#1B808D"/>
<path d="M1.94935 14.3132C1.94279 14.333 1.93622 14.366 1.93622 14.388C1.93622 14.4629 1.8881 14.5377 1.82247 14.5663C1.7656 14.5906 1.75904 14.6016 1.76997 14.661C1.78747 14.7446 1.91654 14.9384 1.98216 14.9802C2.02591 15.0066 2.03685 15.0044 2.06747 14.9648C2.17466 14.8327 2.11341 14.278 1.9931 14.278C1.9756 14.278 1.95591 14.2934 1.94935 14.3132Z" fill="#1B808D"/>
<path d="M0.496865 14.6786C0.464053 14.7116 0.464053 14.7974 0.49249 14.9581C0.505615 15.0264 0.540615 15.2883 0.569053 15.5437C0.647803 16.1974 0.717803 16.5012 0.78999 16.5012C0.827178 16.5012 0.831553 16.3229 0.79874 16.182C0.787803 16.1336 0.744053 15.8298 0.700303 15.5063C0.656553 15.1849 0.608428 14.8635 0.590928 14.7952C0.573428 14.727 0.558115 14.6676 0.558115 14.6632C0.558115 14.6434 0.523115 14.6522 0.496865 14.6786Z" fill="#1B808D"/>
<path d="M1.21653 14.9538C1.05028 15.2906 0.964966 15.6494 0.964966 16.017C0.964966 16.422 1.00872 16.5079 1.2209 16.5299C1.31497 16.5387 1.33028 16.5343 1.3609 16.4859C1.38278 16.4551 1.41997 16.3494 1.44403 16.2503C1.47465 16.1337 1.50309 16.072 1.52278 16.072C1.54684 16.072 1.55778 16.1491 1.57747 16.4242C1.62122 17.0604 1.65622 17.1397 1.81372 16.9658C1.8684 16.9041 1.90122 16.9085 1.95809 16.979L2.00403 17.0406L1.99309 16.9371C1.98653 16.8799 1.95153 16.7676 1.91434 16.6862C1.87934 16.6047 1.84872 16.5079 1.84872 16.4705C1.84872 16.334 1.94715 16.3076 2.04778 16.4154C2.11997 16.4947 2.14403 16.4903 2.1134 16.4066C2.08497 16.3296 1.94715 16.2327 1.78309 16.1711C1.7109 16.1447 1.65403 16.1095 1.6584 16.0963C1.66278 16.0831 1.73934 16.0676 1.82903 16.0588C2.00184 16.0478 2.07403 16.0192 2.11122 15.951C2.1659 15.8475 2.08715 15.8079 1.87059 15.8299C1.52278 15.8651 1.41997 15.7331 1.36747 15.1805C1.32809 14.7733 1.31715 14.7557 1.21653 14.9538Z" fill="#1B808D"/>
<path d="M7.03314 14.9736C7.03314 15.0264 7.13595 15.1189 7.31095 15.2202C7.49252 15.328 7.59314 15.4403 7.61283 15.557C7.62814 15.6494 7.66752 15.6934 7.72658 15.6824C7.8272 15.6626 7.8097 15.4469 7.69595 15.3126C7.62814 15.229 7.4422 15.1013 7.25845 15.0066C7.10752 14.9318 7.03314 14.9208 7.03314 14.9736Z" fill="#1B808D"/>
<path d="M2.3825 15.777C2.35844 15.8232 2.34313 15.9179 2.33657 16.039C2.32344 16.3251 2.40438 16.6223 2.44813 16.4462C2.47 16.3582 2.46563 15.7484 2.44157 15.7242C2.42844 15.711 2.40657 15.7308 2.3825 15.777Z" fill="#1B808D"/>
<path d="M2.72593 16.1952C2.70187 16.2326 2.67781 16.3097 2.67124 16.3669C2.64062 16.5826 2.63624 16.5914 2.53999 16.6355C2.49187 16.6575 2.41531 16.6773 2.37156 16.6773C2.32999 16.6773 2.27531 16.6905 2.25343 16.7081C2.16156 16.7741 2.32124 16.8556 2.55312 16.8578C2.62968 16.86 2.71499 16.8534 2.74343 16.8446C2.79156 16.827 2.79374 16.8182 2.78062 16.7169C2.76312 16.587 2.80249 16.5232 2.90093 16.5232C2.99499 16.5232 3.03656 16.5804 3.02343 16.6883C3.00593 16.8116 3.05624 16.8886 3.21374 16.9789C3.28156 17.0185 3.39312 17.0845 3.46093 17.1219C3.60312 17.2034 3.89187 17.4697 3.93999 17.5622C3.98812 17.6547 3.97718 17.6899 3.89406 17.7251C3.73218 17.7933 3.78249 17.8836 3.99468 17.9144C4.14781 17.9342 4.22656 17.976 4.25499 18.0509C4.27468 18.1037 4.37531 18.1521 4.46281 18.1521C4.56562 18.1521 4.64874 18.1037 4.68156 18.0289C4.72093 17.9342 4.79093 17.9056 4.90468 17.9364C5.01624 17.9672 5.08843 18.0223 5.26781 18.2116C5.42968 18.3833 5.56968 18.4845 5.72062 18.5374C5.83218 18.577 5.86937 18.5572 5.82781 18.4801C5.81468 18.4515 5.71187 18.3326 5.60031 18.216C5.31593 17.9166 5.24374 17.7427 5.36624 17.6458C5.41437 17.6062 5.44281 17.5996 5.52374 17.6106C5.80593 17.6525 5.82124 17.6525 5.90874 17.6062C6.05968 17.527 6.19531 17.3575 6.23249 17.199C6.24999 17.1241 6.16687 17.0295 6.08156 17.0295C6.02249 17.0295 6.01374 17.0515 6.04874 17.1197C6.09687 17.2078 5.96343 17.3575 5.76437 17.4411C5.69874 17.4675 5.61343 17.4808 5.50187 17.4808C5.30499 17.4786 5.12562 17.4059 4.98781 17.2716C4.76468 17.0559 4.01874 16.6553 3.80437 16.6377C3.70593 16.6289 3.67312 16.6377 3.57031 16.6971C3.42156 16.783 3.37999 16.783 3.28156 16.6971C3.20499 16.6289 3.18312 16.554 3.22687 16.51C3.25531 16.4814 3.18093 16.3625 3.10656 16.3119C3.07374 16.2921 3.00812 16.2723 2.95781 16.2723C2.87687 16.2701 2.86156 16.2613 2.83531 16.1974C2.79593 16.1094 2.77843 16.1094 2.72593 16.1952Z" fill="#1B808D"/>
<path d="M3.46093 16.4C3.43905 16.4551 3.44124 16.5189 3.4653 16.5321C3.48937 16.5475 3.50687 16.4551 3.48937 16.4022C3.47624 16.3648 3.47405 16.3648 3.46093 16.4Z" fill="#1B808D"/>
<path d="M13.2391 16.5849C13.1625 16.6686 13.2019 16.7434 13.3222 16.7434C13.3506 16.7434 13.3878 16.7368 13.4075 16.7302C13.4491 16.7148 13.4534 16.6091 13.4162 16.5717C13.3769 16.5321 13.2784 16.5409 13.2391 16.5849Z" fill="#1B808D"/>
<path d="M0.921247 16.7675C0.768122 16.8886 0.916872 17.1329 1.31937 17.4169C1.52062 17.5622 1.78312 17.8043 1.78312 17.8462C1.78312 17.8572 1.80281 17.866 1.82687 17.866C1.87281 17.866 2.00187 17.6679 2.00187 17.5974C2.00187 17.5446 1.92531 17.4962 1.75906 17.4477C1.56875 17.3905 1.49218 17.3289 1.50312 17.2474C1.51187 17.188 1.5075 17.1836 1.44406 17.1836C1.28875 17.1836 1.03937 16.937 1.03937 16.7829C1.03937 16.7081 1.00218 16.7037 0.921247 16.7675Z" fill="#1B808D"/>
<path d="M3.26188 17.2849C3.22251 17.3223 3.23345 17.4016 3.28595 17.4874C3.33407 17.5644 3.36907 17.5336 3.37563 17.4082C3.38001 17.3157 3.37563 17.2915 3.33845 17.2739C3.30563 17.2563 3.28813 17.2585 3.26188 17.2849Z" fill="#1B808D"/>
<path d="M6.51903 17.5732C6.56497 17.7669 6.72466 17.8924 6.93466 17.9056C7.01997 17.9122 7.07685 17.9056 7.07685 17.8924C7.07685 17.8704 6.78591 17.6371 6.66122 17.56C6.61966 17.5358 6.56716 17.5138 6.5431 17.5138C6.51028 17.5138 6.50591 17.5248 6.51903 17.5732Z" fill="#1B808D"/>
<path d="M2.28403 17.5975C2.1681 17.6724 2.08935 17.8022 2.12435 17.8617C2.1506 17.9035 2.30153 17.9255 2.33653 17.8903C2.36497 17.8617 2.43716 17.6459 2.43935 17.5843C2.43935 17.5205 2.40216 17.5227 2.28403 17.5975Z" fill="#1B808D"/>
<path d="M2.9206 17.5909C2.87467 17.6393 2.87248 17.6525 2.89873 17.6679C2.96217 17.7075 3.05842 17.6503 3.04529 17.5799C3.03654 17.5248 2.97748 17.5314 2.9206 17.5909Z" fill="#1B808D"/>
<path d="M7.33499 18.0531C7.24749 18.1125 7.15562 18.1257 7.02874 18.1015C6.98281 18.0905 6.94562 18.0927 6.94562 18.1037C6.94562 18.1455 7.03312 18.2006 7.12062 18.2116C7.21031 18.2248 7.52968 18.1808 7.54718 18.1521C7.56249 18.1279 7.47499 17.9981 7.44218 17.9981C7.42687 17.9981 7.37874 18.0223 7.33499 18.0531Z" fill="#1B808D"/>
<path d="M2.97528 18.2865C2.9556 18.3217 2.93372 18.4032 2.92716 18.467C2.90528 18.6431 2.85497 18.6805 2.63841 18.6805C2.43935 18.6805 2.41528 18.6981 2.38685 18.8632C2.37372 18.9293 2.35403 18.9579 2.29497 18.9931C2.2206 19.0371 2.2206 19.0371 2.23372 19.156L2.24903 19.2749L2.1506 19.3673C2.09591 19.4201 2.01278 19.495 1.96903 19.5324C1.89028 19.6006 1.8881 19.6094 1.90122 19.6975C1.9231 19.8318 2.03685 20.1069 2.3081 20.6859C2.70185 21.5267 2.87028 21.7227 3.25528 21.7931C3.32966 21.8063 3.33622 21.8041 3.33622 21.7557C3.33622 21.6478 3.41935 21.628 3.61185 21.6852C3.83716 21.7513 4.12153 21.9802 4.37091 22.2906C4.54153 22.5041 4.67278 22.6428 4.7056 22.6428C4.75591 22.6428 4.96153 22.8519 5.38154 23.323C5.9306 23.9459 6.02466 24.0296 6.06185 23.9305C6.08372 23.8777 5.98529 23.7478 5.82779 23.6179C5.62653 23.455 5.62872 23.4308 5.85841 23.3604C6.09029 23.29 6.14935 23.2305 6.19091 23.0302C6.20841 22.9488 6.26529 22.7969 6.31997 22.689C6.37247 22.5833 6.42716 22.4381 6.44028 22.3676C6.4906 22.0903 6.45122 21.6236 6.35716 21.4013C6.3331 21.3462 6.26529 21.2362 6.20404 21.1591C6.14497 21.0799 6.08372 20.9786 6.0706 20.9324C6.03122 20.8157 5.89122 20.6242 5.64841 20.3579C5.40997 20.0937 5.28528 19.889 5.13653 19.5082C5.0556 19.2969 5.01403 19.2264 4.92872 19.134C4.82153 19.0195 4.7931 18.9601 4.71435 18.6871C4.66403 18.5132 4.60716 18.4252 4.55685 18.4428C4.50653 18.4626 4.49341 18.5793 4.50872 18.872C4.5306 19.2462 4.53497 19.244 4.20903 19.0745C3.94435 18.9359 3.81528 18.8302 3.75403 18.7003C3.7081 18.6013 3.60747 18.5396 3.3931 18.4736C3.19403 18.4098 3.08028 18.3415 3.0606 18.2667C3.0431 18.2006 3.01466 18.205 2.97528 18.2865ZM6.22372 21.4145C6.31779 21.5686 6.30029 21.7315 6.19966 21.639C6.13841 21.584 6.09247 21.4915 6.09247 21.4255C6.09247 21.3198 6.16247 21.3132 6.22372 21.4145Z" fill="#1B808D"/>
<path d="M7.59966 18.3701C7.54278 18.4252 7.51434 18.4758 7.51434 18.5132C7.51434 18.5858 7.55372 18.6013 7.65872 18.5726C7.75497 18.5462 7.80528 18.5682 7.84684 18.6519C7.88841 18.7377 7.92997 18.7421 7.92997 18.6607C7.92997 18.5286 7.79216 18.2843 7.71778 18.2843C7.70028 18.2843 7.64559 18.3217 7.59966 18.3701Z" fill="#1B808D"/>
<path d="M8.81371 19.6381C8.79184 19.6931 8.82684 19.8318 8.88371 19.9199C8.92746 19.9881 8.94934 20.0035 8.99746 19.9969C9.07621 19.9881 9.08496 19.9221 9.02153 19.7988C8.9384 19.6315 8.84434 19.5588 8.81371 19.6381Z" fill="#1B808D"/>
<path d="M11.2615 20.1025C11.2462 20.1443 11.3075 20.1993 11.3665 20.1993C11.419 20.1993 11.5065 20.1223 11.4869 20.0937C11.4606 20.0519 11.279 20.0607 11.2615 20.1025Z" fill="#1B808D"/>
<path d="M10.8875 20.2258C10.8263 20.2874 10.8722 20.4305 10.9619 20.4635C11.1128 20.5229 11.185 20.3644 11.056 20.2566C10.9838 20.1949 10.9291 20.1839 10.8875 20.2258Z" fill="#1B808D"/>
<path d="M8.31502 20.6748C8.30846 20.6947 8.31721 20.7431 8.3369 20.7849C8.37846 20.8708 8.57533 21.0579 8.62346 21.0579C8.7044 21.0579 8.57315 20.7893 8.4419 20.6858C8.3719 20.6308 8.33252 20.6264 8.31502 20.6748Z" fill="#1B808D"/>
<path d="M8.48562 22.3257C8.47687 22.3587 8.48343 22.482 8.49875 22.6031C8.53375 22.865 8.51843 22.9289 8.41343 22.9641L8.34125 22.9883L8.43093 23.0609C8.48125 23.1006 8.51843 23.1424 8.51406 23.1556C8.50968 23.1688 8.44406 23.1908 8.36531 23.2062C8.19468 23.2392 8.04812 23.2965 7.77687 23.4374C7.54718 23.5584 7.36562 23.6817 7.34593 23.7367C7.33718 23.7587 7.3525 23.7874 7.38531 23.816C7.42687 23.849 7.45968 23.8556 7.54718 23.8468C7.69812 23.8314 7.85343 23.7565 8.16625 23.5496C8.31281 23.4506 8.47031 23.3537 8.51625 23.3361C8.62125 23.2921 9.0675 22.9927 9.0675 22.9641C9.0675 22.9531 8.98656 22.8584 8.88593 22.755C8.77875 22.6427 8.68468 22.5216 8.65406 22.4556C8.57968 22.2905 8.57312 22.2795 8.53593 22.2729C8.51187 22.2685 8.49437 22.2861 8.48562 22.3257Z" fill="#1B808D"/>
<path d="M17.8393 25.927C17.7562 25.9688 17.7409 25.9886 17.7409 26.0415C17.7409 26.1273 17.8328 26.1978 17.9203 26.1757C17.9968 26.1581 18.1718 25.9754 18.1631 25.927C18.1522 25.8654 17.9597 25.8654 17.8393 25.927Z" fill="#1B808D"/>
<path d="M20.7487 26.7305C20.7312 26.7371 20.6131 26.7899 20.4862 26.8494C20.2237 26.9704 20.0728 27.0145 19.8475 27.0343C19.5675 27.0585 19.34 27.1091 19.049 27.2104C18.5262 27.3909 17.8306 27.4965 17.2597 27.4811C16.9644 27.4745 16.949 27.4701 16.8047 27.3997C16.6778 27.338 16.6384 27.327 16.5509 27.338C16.435 27.3512 16.1987 27.4349 16.1987 27.4635C16.1987 27.4723 16.3059 27.5582 16.4394 27.6506C16.5706 27.7453 16.6734 27.8289 16.6669 27.8399C16.6603 27.8509 16.5115 27.8597 16.3344 27.8597C16.0806 27.8597 15.9756 27.8685 15.8203 27.9082C15.6037 27.961 15.5862 27.9544 15.5862 27.8201C15.5862 27.7761 15.5731 27.7431 15.5512 27.7343C15.5315 27.7277 15.4222 27.7431 15.3062 27.7673C14.8534 27.8663 14.6325 27.8531 14.1775 27.6946C13.8625 27.5846 13.7444 27.5714 13.6722 27.6396C13.5803 27.7255 13.4184 27.7409 13.0006 27.6968C12.7928 27.677 12.5259 27.6506 12.4056 27.6374C12.2569 27.622 12.1344 27.6242 12.0119 27.6396C11.6597 27.688 11.3753 27.7717 11.3928 27.8245C11.4212 27.9148 12.7578 28.1635 13.5956 28.234C13.7575 28.2472 13.9937 28.267 14.1206 28.278C14.4159 28.3066 14.9431 28.3066 15.2362 28.278C15.3631 28.267 15.6344 28.2472 15.8378 28.234C16.7653 28.1745 17.7365 28.0248 18.4519 27.8333C19.2962 27.6088 20.9894 26.889 20.9894 26.7547C20.9894 26.7217 20.9719 26.7151 20.8865 26.7173C20.8275 26.7173 20.7662 26.7239 20.7487 26.7305Z" fill="#1B808D"/>
</g>
<defs>
<clipPath id="clip0_15_13017">
<rect width="28" height="28" fill="white" transform="translate(0.470642 0.300049)"/>
</clipPath>
</defs>
</svg>
