<svg width="22" height="23" viewBox="0 0 22 23" fill="none" xmlns="http://www.w3.org/2000/svg">
<g clip-path="url(#clip0_15_19725)">
<path d="M4.91975 7.1875H0V23H4.91975V7.1875Z" fill="#1F2633"/>
<path d="M18.3205 7.37294C18.2683 7.35569 18.2188 7.337 18.1637 7.32119C18.0977 7.30537 18.0317 7.29244 17.9644 7.28094C17.7031 7.22631 17.4171 7.1875 17.0816 7.1875C14.2134 7.1875 12.3942 9.36819 11.7948 10.2106V7.1875H6.875V23H11.7948V14.375C11.7948 14.375 15.5128 8.96137 17.0816 12.9375C17.0816 16.4867 17.0816 23 17.0816 23H22V12.3294C22 9.94031 20.4339 7.94938 18.3205 7.37294Z" fill="#1F2633"/>
<path d="M2.40625 5.03125C3.73519 5.03125 4.8125 3.90497 4.8125 2.51562C4.8125 1.12628 3.73519 0 2.40625 0C1.07731 0 0 1.12628 0 2.51562C0 3.90497 1.07731 5.03125 2.40625 5.03125Z" fill="#1F2633"/>
</g>
<defs>
<clipPath id="clip0_15_19725">
<rect width="22" height="23" fill="white"/>
</clipPath>
</defs>
</svg>
