<svg width="17" height="17" viewBox="0 0 17 17" fill="none" xmlns="http://www.w3.org/2000/svg">
<g clip-path="url(#clip0_15_13015)">
<path d="M3.26019 13.6919H14.7602M3.26019 13.6919C3.06128 13.6919 2.87052 13.6129 2.72986 13.4722C2.58921 13.3316 2.51019 13.1408 2.51019 12.9419M3.26019 13.6919H8.26019C8.67419 13.6919 9.01019 13.3559 9.01019 12.9419M14.7602 13.6919C15.1742 13.6919 15.5102 13.3559 15.5102 12.9419M14.7602 13.6919H9.76019C9.56128 13.6919 9.37052 13.6129 9.22986 13.4722C9.08921 13.3316 9.01019 13.1408 9.01019 12.9419M2.51019 12.9419V4.44189M2.51019 12.9419V11.9419C2.51019 11.5279 2.84619 11.1919 3.26019 11.1919M9.01019 12.9419V11.9419M2.51019 4.44189C2.51019 4.02789 2.84619 3.69189 3.26019 3.69189H14.7602C15.1742 3.69189 15.5102 4.02789 15.5102 4.44189M2.51019 4.44189V5.44189C2.51019 5.85589 2.84619 6.19189 3.26019 6.19189M3.26019 11.1919C2.84619 11.1919 2.51019 10.8559 2.51019 10.4419V9.44189C2.51019 9.02789 2.84619 8.69189 3.26019 8.69189M3.26019 11.1919H8.26019M15.5102 12.9419V4.44189M15.5102 12.9419V11.9419C15.5102 11.5279 15.1742 11.1919 14.7602 11.1919M15.5102 4.44189V5.44189C15.5102 5.85589 15.1742 6.19189 14.7602 6.19189M14.7602 11.1919C15.1742 11.1919 15.5102 10.8559 15.5102 10.4419V9.44189C15.5102 9.02789 15.1742 8.69189 14.7602 8.69189M14.7602 11.1919H9.76019M14.7602 6.19189H3.26019M14.7602 6.19189H9.76019C9.34619 6.19189 9.01019 6.52789 9.01019 6.94189M14.7602 6.19189C15.1742 6.19189 15.5102 6.52789 15.5102 6.94189V7.94189C15.5102 8.35589 15.1742 8.69189 14.7602 8.69189M3.26019 6.19189H8.26019C8.67419 6.19189 9.01019 6.52789 9.01019 6.94189M3.26019 6.19189C2.84619 6.19189 2.51019 6.52789 2.51019 6.94189V7.94189C2.51019 8.35589 2.84619 8.69189 3.26019 8.69189M9.01019 6.94189V7.94189M3.26019 8.69189H8.26019M14.7602 8.69189H9.76019M8.26019 8.69189C8.67419 8.69189 9.01019 8.35589 9.01019 7.94189M8.26019 8.69189C8.67419 8.69189 9.01019 9.02789 9.01019 9.44189M9.01019 7.94189C9.01019 8.35589 9.34619 8.69189 9.76019 8.69189M9.76019 8.69189C9.34619 8.69189 9.01019 9.02789 9.01019 9.44189M9.01019 9.44189V10.4419M8.26019 11.1919C8.67419 11.1919 9.01019 10.8559 9.01019 10.4419M8.26019 11.1919C8.67419 11.1919 9.01019 11.5279 9.01019 11.9419M9.01019 10.4419C9.01019 10.8559 9.34619 11.1919 9.76019 11.1919M9.76019 11.1919C9.34619 11.1919 9.01019 11.5279 9.01019 11.9419" stroke="#32864B" stroke-linecap="round" stroke-linejoin="round"/>
</g>
<defs>
<clipPath id="clip0_15_13015">
<rect width="16" height="16" fill="white" transform="translate(0.316406 0.691895)"/>
</clipPath>
</defs>
</svg>
