<svg width="13" height="13" viewBox="0 0 13 13" fill="none" xmlns="http://www.w3.org/2000/svg">
<path d="M6.67065 2.75V6.5H9.48315M12.2957 6.5C12.2957 7.23869 12.1502 7.97014 11.8675 8.65259C11.5848 9.33505 11.1705 9.95515 10.6481 10.4775C10.1258 10.9998 9.50571 11.4141 8.82325 11.6968C8.14079 11.9795 7.40934 12.125 6.67065 12.125C5.93197 12.125 5.20052 11.9795 4.51806 11.6968C3.8356 11.4141 3.21551 10.9998 2.69318 10.4775C2.17085 9.95515 1.75651 9.33505 1.47383 8.65259C1.19115 7.97014 1.04565 7.23869 1.04565 6.5C1.04565 5.00816 1.63829 3.57742 2.69318 2.52252C3.74807 1.46763 5.17881 0.875 6.67065 0.875C8.1625 0.875 9.59324 1.46763 10.6481 2.52252C11.703 3.57742 12.2957 5.00816 12.2957 6.5Z" stroke="#3654A5" strokeWidth="0.75" stroke-linecap="round" stroke-linejoin="round"/>
</svg>
