<svg width="17" height="16" viewBox="0 0 17 16" fill="none" xmlns="http://www.w3.org/2000/svg">
<path d="M11.2798 6.03363H14.3252L12.3846 4.10486C11.7598 3.48429 10.9816 3.03801 10.1281 2.81091C9.27464 2.5838 8.37601 2.58387 7.52258 2.8111C6.66914 3.03833 5.89096 3.48472 5.26628 4.10539C4.64161 4.72606 4.19243 5.49914 3.96393 6.34691M3.32581 12.2726V9.24762M3.32581 9.24762H6.37123M3.32581 9.24762L5.2658 11.1764C5.89057 11.797 6.66881 12.2432 7.52228 12.4703C8.37575 12.6975 9.27438 12.6974 10.1278 12.4702C10.9813 12.2429 11.7594 11.7965 12.3841 11.1759C13.0088 10.5552 13.458 9.78211 13.6865 8.93434M14.3252 3.00869V6.03241" stroke="#3654A5" strokeLinecap="round" strokeLinejoin="round"/>
</svg>
